<?xml version="1.0" encoding="utf-8"?>
<svg version="1.1" id="Layer_1" xmlns="http://www.w3.org/2000/svg" xmlns:xlink="http://www.w3.org/1999/xlink" x="0px" y="0px"
	 viewBox="0 0 1000 1000" style="enable-background:new 0 0 1000 1000;" xml:space="preserve">
<style type="text/css">
	.st0-bolt{fill-rule:evenodd;clip-rule:evenodd;fill:#FFFFFF;}
	.st1-bolt{fill-rule:evenodd;clip-rule:evenodd;fill:url(#Path-2_1_);}
	.st2-bolt{fill-rule:evenodd;clip-rule:evenodd;fill:url(#Path-3_1_);}
	.st3-bolt{fill-rule:evenodd;clip-rule:evenodd;fill:url(#Path-4_1_);}
	.st4-bolt{fill-rule:evenodd;clip-rule:evenodd;fill:#464AEB;}
</style>
<g>
	<g>
		<path id="Combined-Shape" class="st0-bolt" d="M914.3,444v120.3h-17.2V444h-32.6v-15.5h82.5V444H914.3z"/>
		<path class="st0-bolt" d="M769.5,548.3h42.1v15.9h-42.1h-17.2V428.1h17.2V548.3z"/>
		<path class="st0-bolt" d="M393.2,428.4h21c30.3,0.9,45.7,12.8,46.1,35.7c0,12.8-4.9,21.9-14.9,27.4c3.7,1,6.2,1.9,7.7,2.7
			c13.4,7.2,19.8,17.6,19.8,32.9c0,32.6-34.7,36.7-43.3,37c0,0-12.2,0-36.5,0L393.2,428.4L393.2,428.4z M410.5,443.6v44.9
			c5.7,0,9.5-0.2,11.5-0.3c2.2-0.2,4-0.6,5.3-0.8c6-1.2,9.9-3.5,11.9-5.7c3.4-3.7,4.9-9.4,4.9-15.6c0-5.6-0.9-10.8-3.7-14.3
			c-1.9-2.4-5.7-5.3-11.7-6.7C426.2,444.3,420,443.9,410.5,443.6z M410.3,502.2v46.9c9.2-0.1,15.2-0.2,18-0.4c2-0.1,3.6-0.3,4.8-0.5
			c4-0.5,7.1-1.5,9.1-2.3c9.1-3.8,13.7-10.8,13.7-20.3C455.9,508.2,440.7,500.4,410.3,502.2z"/>
		<path class="st0-bolt" d="M609.1,567.2c-39.7,0-71.9-31.7-71.9-70.9s32.2-70.9,71.9-70.9c39.7,0,71.9,31.7,71.9,70.9
			S648.8,567.2,609.1,567.2z M609.3,551.3c30.4,0,55-24.7,55-55.2s-24.6-55.2-55-55.2s-55,24.7-55,55.2S578.9,551.3,609.3,551.3z"/>
		<polygon id="Path-9" class="st0-bolt" points="596.4,468.9 627.8,496.1 596.4,523.6 		"/>

			<linearGradient id="Path-2_1_" gradientUnits="userSpaceOnUse" x1="783.61" y1="27.5723" x2="783.3348" y2="27.872" gradientTransform="matrix(173.9058 0 0 276.2074 -136126.6406 -7132.1865)">
			<stop  offset="0" style="stop-color:#454BEA"/>
			<stop  offset="1" style="stop-color:#4748EB"/>
		</linearGradient>
		<polygon id="Path-2" class="st1-bolt" points="112.3,450.4 112.3,569 187,509.7 		"/>

			<linearGradient id="Path-3_1_" gradientUnits="userSpaceOnUse" x1="786.8884" y1="28.2406" x2="787.1363" y2="27.9307" gradientTransform="matrix(453.2149 0 0 269.1703 -356501.5625 -7131.6543)">
			<stop  offset="0" style="stop-color:#454AEA"/>
			<stop  offset="1" style="stop-color:#61C2ED"/>
		</linearGradient>
		<polygon id="Path-3" class="st2-bolt" points="112.3,443.1 307,367.5 161.8,483.1 		"/>

			<linearGradient id="Path-4_1_" gradientUnits="userSpaceOnUse" x1="784.049" y1="27.4248" x2="783.7396" y2="27.8814" gradientTransform="matrix(190.7763 0 0 266.5512 -149322.4844 -6902.6582)">
			<stop  offset="0" style="stop-color:#61C2ED"/>
			<stop  offset="1" style="stop-color:#4649EB"/>
		</linearGradient>
		<polygon id="Path-4" class="st3-bolt" points="161.7,483.2 222.1,434.9 243.7,549.5 		"/>
		<polygon id="Path-5" class="st4-bolt" points="243.7,549.5 49.6,625 194.5,509.7 		"/>
	</g>
</g>
</svg>
