<?xml version="1.0" standalone="no"?>
<!DOCTYPE svg PUBLIC "-//W3C//DTD SVG 20010904//EN"
 "http://www.w3.org/TR/2001/REC-SVG-20010904/DTD/svg10.dtd">
<svg version="1.0" xmlns="http://www.w3.org/2000/svg"
 width="64.000000pt" height="64.000000pt" viewBox="0 0 64.000000 64.000000"
 preserveAspectRatio="xMidYMid meet">
<metadata>
Created by potrace 1.16, written by Peter Selinger 2001-2019
</metadata>
<g transform="translate(0.000000,64.000000) scale(0.100000,-0.100000)"
fill="#000000" stroke="none">
<path d="M391 493 c1 -32 6 -64 11 -70 12 -15 7 -16 -25 -4 -39 15 -38 2 3
-39 21 -21 43 -56 49 -77 14 -48 14 -110 1 -118 -5 -3 -10 0 -10 8 0 15 -20
27 -46 27 -10 0 -14 -13 -14 -45 0 -46 -13 -58 -37 -34 -16 16 6 58 48 93 17
15 30 29 27 31 -2 3 -30 -1 -62 -7 -58 -12 -73 -10 -158 27 -16 6 -18 0 -18
-57 0 -72 9 -86 73 -113 47 -20 146 -20 153 -1 3 8 12 17 20 20 9 3 12 1 9 -4
-10 -17 16 -11 50 10 93 57 122 186 67 291 -22 42 -34 55 -54 57 -17 2 -25 8
-22 16 4 10 -11 21 -58 43 -4 2 -7 -22 -7 -54z"/>
</g>
</svg>
