<?xml version="1.0" standalone="no"?>
<!DOCTYPE svg PUBLIC "-//W3C//DTD SVG 20010904//EN"
 "http://www.w3.org/TR/2001/REC-SVG-20010904/DTD/svg10.dtd">
<svg version="1.0" xmlns="http://www.w3.org/2000/svg"
 width="400.000000pt" height="400.000000pt" viewBox="0 0 400.000000 400.000000"
 preserveAspectRatio="xMidYMid meet">

<g transform="translate(0.000000,400.000000) scale(0.100000,-0.100000)"
fill="#000000" stroke="none">
<path d="M1875 3719 c-66 -10 -156 -31 -200 -45 -98 -33 -331 -149 -428 -214
-108 -73 -134 -100 -152 -163 -15 -50 -14 -58 1 -96 18 -46 38 -61 83 -61 21
0 31 -6 36 -21 4 -12 3 -25 -2 -29 -4 -4 -57 -10 -118 -12 -151 -6 -201 -27
-238 -104 -41 -84 -60 -221 -53 -384 7 -159 16 -205 48 -235 36 -34 247 -102
421 -135 87 -17 173 -30 191 -30 18 0 41 -6 51 -14 19 -14 19 -15 2 -50 -33
-71 -14 -115 60 -135 87 -24 123 -5 154 80 12 32 27 59 34 59 27 0 40 -32 37
-91 -4 -69 8 -96 54 -115 19 -8 37 -20 40 -28 7 -17 -41 -148 -79 -216 -47
-86 -173 -266 -255 -367 -63 -78 -82 -95 -124 -110 -32 -11 -50 -24 -53 -38
-3 -11 -14 -110 -25 -220 -46 -450 -42 -426 -65 -437 -11 -6 -21 -12 -23 -13
-4 -4 -32 -214 -32 -244 l0 -24 113 7 c61 4 306 13 542 21 237 8 502 18 590
21 l160 7 157 78 c117 58 158 83 157 96 0 10 -13 63 -28 118 -27 99 -27 100
-59 103 -18 2 -35 9 -38 15 -2 7 -33 143 -67 302 l-63 290 -36 6 c-42 7 -90
43 -179 135 -127 133 -216 301 -235 443 -6 47 -5 51 17 60 66 25 94 100 60
164 l-20 38 28 31 c34 38 53 33 80 -21 29 -56 68 -81 128 -81 55 0 82 20 103
75 9 24 8 41 -6 88 -17 56 -17 59 2 76 10 10 53 28 94 41 41 12 140 47 218 78
203 79 217 102 216 342 -1 126 -5 155 -27 225 -37 119 -63 172 -92 191 -30 20
-139 21 -253 3 -40 -7 -75 -9 -79 -6 -3 4 -6 23 -7 44 -1 34 3 39 37 55 44 21
52 38 61 130 7 63 6 67 -21 97 -39 42 -212 135 -317 171 -209 71 -375 85 -601
49z m363 -70 c391 -84 578 -189 508 -285 -14 -18 -16 -18 -58 13 -83 62 -176
113 -254 138 -143 47 -197 55 -359 55 -129 0 -168 -4 -246 -24 -52 -13 -118
-27 -148 -31 -29 -4 -86 -22 -126 -40 -92 -42 -273 -164 -328 -221 -49 -51
-64 -54 -73 -18 -12 46 7 75 66 107 30 16 92 54 136 84 45 30 124 72 175 95
52 23 103 47 114 54 38 23 247 76 334 84 138 12 156 11 259 -11z m42 -198
c104 -24 235 -74 273 -105 l29 -23 5 -154 c4 -107 0 -197 -10 -294 -29 -252
-133 -499 -278 -659 -44 -48 -44 -48 -84 -37 -22 6 -80 11 -129 11 -78 0 -97
-4 -153 -30 -34 -16 -65 -30 -68 -30 -3 0 -26 19 -50 41 -37 35 -45 48 -45 78
0 53 -30 93 -94 127 -52 27 -61 37 -115 129 -32 55 -63 116 -69 135 -62 195
-61 187 -31 192 53 8 86 115 56 175 -17 32 -70 63 -109 63 -38 0 -47 13 -54
72 l-6 55 63 53 c60 50 148 100 177 100 7 0 54 16 105 36 113 44 303 82 417
83 50 0 120 -7 170 -18z m768 -381 c12 -25 34 -91 48 -145 23 -88 25 -114 21
-213 -8 -168 -10 -171 -207 -235 -41 -13 -106 -38 -145 -55 -38 -17 -96 -40
-128 -53 -81 -31 -95 -64 -57 -139 23 -46 26 -83 6 -99 -27 -23 -56 23 -81
131 l-13 56 35 52 c19 28 44 55 56 60 12 5 69 29 127 55 58 26 132 56 165 67
66 23 99 47 123 93 39 74 0 342 -57 386 -26 21 -55 22 -181 7 -35 -4 -34 32 2
50 31 14 152 31 218 28 43 -1 46 -3 68 -46z m-1654 -60 c41 -9 58 -25 53 -50
-2 -13 -26 -14 -158 -11 l-156 3 -35 -31 c-93 -81 -118 -334 -45 -442 29 -42
109 -65 407 -118 141 -25 214 -46 236 -68 34 -35 -7 -233 -53 -250 -8 -3 -22
2 -31 11 -16 15 -15 20 2 64 30 77 27 102 -15 124 -20 10 -70 23 -110 27 -41
5 -135 23 -209 40 -74 18 -157 36 -185 42 -65 12 -134 47 -157 79 -63 87 -25
485 53 555 10 10 33 21 51 25 46 11 305 11 352 0z m1476 -135 c37 -75 42 -223
8 -238 -168 -73 -254 -105 -259 -99 -4 4 5 37 21 75 34 79 48 126 64 222 l12
70 49 12 c28 6 57 11 65 10 8 -1 26 -24 40 -52z m-1592 -38 c6 -7 32 -66 57
-131 25 -65 66 -150 91 -188 25 -39 43 -72 41 -75 -8 -8 -250 39 -303 59 -61
22 -70 39 -79 144 -13 136 31 204 130 204 31 0 57 -5 63 -13z m968 -740 c28
-14 49 -49 38 -60 -2 -2 -27 7 -54 21 -43 21 -64 25 -140 24 -123 -1 -166 -16
-191 -64 -21 -41 -33 -47 -43 -22 -17 45 -3 60 95 94 74 26 95 30 174 27 59
-2 101 -9 121 -20z m-92 -123 c9 -3 18 -24 21 -52 29 -208 115 -382 262 -533
47 -48 69 -78 61 -81 -7 -3 -49 -1 -93 3 -88 9 -373 29 -503 36 -76 4 -88 2
-145 -25 -71 -34 -107 -46 -107 -37 0 4 21 35 46 69 107 141 242 408 272 535
14 63 19 70 46 79 35 11 117 15 140 6z m367 -945 c58 -57 66 -100 25 -138 -22
-21 -33 -23 -128 -21 -56 1 -159 -2 -228 -6 l-125 -7 -38 42 c-51 57 -50 60
25 142 l43 47 188 -5 189 -6 49 -48z m-1036 -158 c3 -15 5 -32 3 -37 -2 -5 7
-19 20 -31 26 -27 28 -52 5 -115 -9 -26 -14 -50 -11 -53 3 -4 26 0 50 9 36 12
45 12 57 1 7 -7 10 -18 7 -24 -9 -14 -174 -67 -183 -58 -7 7 13 270 24 315 7
30 20 28 28 -7z m-109 -503 c17 -33 9 -48 -28 -48 -14 0 -18 8 -18 38 0 62 17
65 46 10z"/>
<path d="M1941 3228 c-40 -46 -75 -89 -78 -96 -3 -6 14 -44 37 -83 l42 -71 47
7 47 6 -4 -68 c-2 -37 -7 -86 -11 -108 l-7 -40 -59 -7 c-32 -4 -62 -11 -66
-15 -7 -9 22 -231 34 -249 4 -7 65 -13 154 -17 81 -3 188 -13 237 -22 49 -9
90 -14 91 -13 14 14 102 235 96 240 -4 4 -31 16 -61 26 -32 11 -56 26 -58 35
-2 8 17 117 42 241 25 123 46 234 46 245 0 13 -10 23 -32 30 -63 19 -236 41
-330 41 l-95 0 -72 -82z m353 -13 c49 -7 93 -18 98 -23 6 -6 -8 -99 -38 -246
-54 -264 -55 -250 24 -262 50 -7 51 -15 15 -90 l-28 -56 -60 7 c-33 4 -121 12
-195 19 l-135 11 -12 55 c-7 30 -11 61 -8 68 3 7 23 12 52 12 26 0 53 4 59 8
13 8 40 321 31 346 -5 14 -11 14 -48 1 -61 -22 -72 -19 -96 24 l-23 40 57 50
57 51 80 0 c45 0 121 -7 170 -15z"/>
<path d="M1696 3192 c-2 -4 0 -29 6 -56 10 -47 9 -49 -18 -72 -36 -29 -45 -27
-59 17 -10 28 -17 35 -43 37 -38 4 -42 -14 -16 -78 16 -40 16 -42 -6 -65 -27
-29 -18 -48 20 -40 24 5 29 2 38 -25 10 -26 8 -32 -8 -43 -11 -6 -20 -20 -20
-30 0 -15 5 -17 28 -12 25 5 30 2 45 -30 30 -64 51 -30 32 51 -6 26 -3 32 20
42 39 18 43 16 50 -31 4 -24 10 -50 15 -57 12 -19 42 -4 37 17 -3 10 -8 39
-12 64 -6 45 -5 47 29 67 46 27 40 57 -9 48 -30 -6 -33 -4 -39 26 -6 29 -2 36
25 59 21 17 30 32 27 45 -4 20 -8 21 -45 9 -19 -5 -23 -2 -23 14 0 36 -12 51
-40 51 -16 0 -31 -4 -34 -8z m40 -208 c5 -27 2 -34 -24 -53 -33 -23 -38 -20
-52 29 -7 26 -5 31 23 49 36 23 44 19 53 -25z"/>
<path d="M2097 939 c7 -7 15 -10 18 -7 3 3 -2 9 -12 12 -14 6 -15 5 -6 -5z"/>
<path d="M2220 910 c0 -5 5 -10 11 -10 5 0 7 5 4 10 -3 6 -8 10 -11 10 -2 0
-4 -4 -4 -10z"/>
<path d="M2263 893 c9 -2 25 -2 35 0 9 3 1 5 -18 5 -19 0 -27 -2 -17 -5z"/>
</g>
</svg>
