<?xml version="1.0" standalone="no"?>
<!DOCTYPE svg PUBLIC "-//W3C//DTD SVG 20010904//EN"
 "http://www.w3.org/TR/2001/REC-SVG-20010904/DTD/svg10.dtd">
<svg version="1.0" xmlns="http://www.w3.org/2000/svg"
 width="64.000000pt" height="64.000000pt" viewBox="0 0 64.000000 64.000000"
 preserveAspectRatio="xMidYMid meet">

<g transform="translate(0.000000,64.000000) scale(0.100000,-0.100000)"
fill="#000000" stroke="none">
<path d="M280 591 c-38 -12 -85 -38 -99 -55 -11 -13 -11 -19 -1 -31 11 -13 9
-15 -13 -15 -29 0 -37 -16 -37 -70 0 -44 11 -54 73 -65 21 -4 37 -13 37 -21 0
-17 22 -18 37 -3 7 7 12 3 17 -15 7 -29 -9 -67 -47 -107 -13 -15 -27 -44 -30
-65 -4 -22 -9 -54 -13 -71 l-6 -33 106 0 c76 0 115 4 136 15 30 15 39 38 21
50 -6 3 -13 25 -16 50 -5 31 -14 49 -31 60 -31 20 -58 72 -48 93 4 10 6 23 5
30 -1 6 3 12 9 12 5 0 10 -4 10 -10 0 -5 7 -10 15 -10 8 0 15 8 15 18 0 11 16
25 43 37 46 22 57 49 38 98 -8 22 -17 27 -43 27 -25 0 -29 3 -20 12 22 22 13
39 -30 58 -45 20 -85 24 -128 11z m108 -16 c29 -9 52 -20 52 -25 0 -13 -1 -13
-40 6 -24 12 -48 15 -92 11 -33 -3 -57 -3 -54 0 4 4 48 17 77 22 3 1 29 -6 57
-14z m6 -31 c20 -8 24 -118 4 -111 -12 4 -13 10 -6 67 3 23 0 25 -36 25 -27 0
-42 -6 -50 -19 -8 -14 -8 -20 2 -23 15 -6 16 -40 0 -45 -25 -9 2 -35 41 -42
38 -6 41 -8 31 -26 -6 -11 -21 -20 -35 -20 -13 0 -31 -3 -40 -6 -11 -5 -18 0
-22 15 -3 11 -10 21 -15 21 -11 0 -38 62 -31 73 3 4 11 3 19 -4 11 -9 14 -9
14 0 0 7 4 10 9 7 12 -8 19 14 13 37 -5 18 -22 24 -22 6 0 -5 -4 -7 -10 -4 -5
3 -10 2 -10 -4 0 -6 -7 -8 -15 -5 -26 10 -16 31 23 47 38 16 108 22 136 11z
m-189 -14 c-3 -5 -12 -10 -18 -10 -7 0 -6 4 3 10 19 12 23 12 15 0z m161 -18
c6 -4 11 -28 10 -54 -1 -45 -3 -48 -27 -48 -34 0 -41 9 -24 27 20 20 19 53 -1
53 -14 0 -14 3 -4 15 14 16 29 19 46 7z m124 -32 c6 -12 10 -33 8 -47 -2 -21
-12 -29 -45 -40 -23 -8 -44 -22 -46 -31 -4 -16 -5 -16 -6 0 -1 11 14 25 39 38
32 16 40 26 40 48 0 15 -5 33 -12 40 -9 9 -9 12 0 12 6 0 16 -9 22 -20z m-287
-7 c-54 -7 -60 -77 -8 -88 14 -3 36 -7 50 -10 18 -4 25 -11 24 -28 -1 -16 -3
-17 -6 -5 -3 11 -23 21 -59 29 l-54 12 0 42 c0 51 4 55 49 53 l36 -1 -32 -4z
m257 -28 c0 -14 -2 -25 -4 -25 -2 0 -12 -3 -20 -6 -12 -5 -15 -2 -11 10 3 9 7
23 10 31 7 24 25 17 25 -10z m-245 -16 c20 -37 16 -43 -19 -30 -28 11 -33 30
-14 49 16 16 15 16 33 -19z m135 -139 c0 -10 12 -32 26 -49 l26 -31 -66 2
c-62 3 -64 4 -52 23 7 11 21 35 30 53 17 34 36 35 36 2z m58 -137 c2 -9 -10
-13 -42 -13 -43 0 -55 7 -39 24 12 11 76 2 81 -11z m-165 -43 c3 -11 1 -20 -4
-20 -5 0 -9 9 -9 20 0 11 2 20 4 20 2 0 6 -9 9 -20z"/>
</g>
</svg>
