<?xml version="1.0" standalone="yes"?>
<svg width="64" height="64">
<path style="fill:#000000; stroke:none;" d="M0 0L0 64L64 64L64 0L0 0z"/>
<path style="fill:#cdcfd6; stroke:none;" d="M31 3L31 4L36 4L31 3z"/>
<path style="fill:#ffffff; stroke:none;" d="M26 4L27 5L26 4z"/>
<path style="fill:#1d1d1d; stroke:none;" d="M26 5L26 6C35.0916 4.85703 43.0974 5.20208 43 16L44 16C46.9909 13.9851 50.4167 15.898 49.2878 19.9614C47.9075 24.9297 42.4597 25.2185 42 31L43 31L43 27C51.9466 25.3738 54.6314 13.3535 44 13C46.6756 3.0707 32.4949 3.08022 26 5z"/>
<path style="fill:#6d6e73; stroke:none;" d="M38 4L39 5L38 4z"/>
<path style="fill:#dadbdc; stroke:none;" d="M39 4L40 5L39 4z"/>
<path style="fill:#ffffff; stroke:none;" d="M42.3333 4.66667L42.6667 5.33333L42.3333 4.66667z"/>
<path style="fill:#4b4c50; stroke:none;" d="M24.6667 5.33333L25.3333 5.66667L24.6667 5.33333z"/>
<path style="fill:#d7b000; stroke:none;" d="M26 8L44 10C40.0169 5.47075 30.3058 2.34384 26 8z"/>
<path style="fill:#86888f; stroke:none;" d="M41 5L42 6L41 5z"/>
<path style="fill:#ffffff; stroke:none;" d="M20 6L20 8L22 6L20 6z"/>
<path style="fill:#9d9e9f; stroke:none;" d="M22 6L23 7L22 6z"/>
<path style="fill:#9b9b9a; stroke:none;" d="M43 6L44 7L43 6z"/>
<path style="fill:#a28400; stroke:none;" d="M19 12L26 8L19 12z"/>
<path style="fill:#000000; stroke:none;" d="M20 15C32.6426 1.52202 47.4343 11.9609 37 28L37 29L42 31L42 30L48 16L43 16C42.5914 3.45211 20.5195 4.32251 20 15z"/>
<path style="fill:#ffffff; stroke:none;" d="M45 7L46 8L45 7z"/>
<path style="fill:#8d7300; stroke:none;" d="M31 8L31 9L36 9L31 8z"/>
<path style="fill:#6d6d6c; stroke:none;" d="M45 8L45 11L46 11L45 8z"/>
<path style="fill:#ffffff; stroke:none;" d="M17 9L18 10L17 9z"/>
<path style="fill:#b69400; stroke:none;" d="M32 29L28 18C22.3936 18 27.7511 11.26 29 9C17.7458 11.972 23.9742 25.5708 32 29z"/>
<path style="fill:#ffd000; stroke:none;" d="M26 15L27 15L28 13C28.8856 17.5355 31.433 37.3272 39 25L30 24C31.5618 16.9662 30.8013 9.91816 40 12C39.1129 15.4737 37.828 18.6878 41 21C40.9997 17.8873 41.8212 13.028 39.3966 10.6034C34.8504 6.05722 27.4606 9.9652 26 15z"/>
<path style="fill:#fbfcfd; stroke:none;" d="M46 10L46 11L50 11L46 10z"/>
<path style="fill:#6a6b70; stroke:none;" d="M40 10L41 11L40 10z"/>
<path style="fill:#3c4050; stroke:none;" d="M18 11L13 15L13 16L20 15L18 11z"/>
<path style="fill:#1e1904; stroke:none;" d="M32 11L32 12L36 12L32 11z"/>
<path style="fill:#514928; stroke:none;" d="M36 11L38 17L39 17L39 11L36 11z"/>
<path style="fill:#333336; stroke:none;" d="M41.3333 11.6667L41.6667 12.3333L41.3333 11.6667z"/>
<path style="fill:#725e00; stroke:none;" d="M21 12L17 15L17 16L24 17L21 12z"/>
<path style="fill:#756521; stroke:none;" d="M31 12L31 14L33 12L31 12z"/>
<path style="fill:#aa9a54; stroke:none;" d="M33 12L33 13L36 13L33 12z"/>
<path style="fill:#aa8a00; stroke:none;" d="M39.3333 12.6667L39.6667 13.3333L39.3333 12.6667z"/>
<path style="fill:#ffffff; stroke:none;" d="M44 12L45 13L44 12z"/>
<path style="fill:#71737b; stroke:none;" d="M45 12L45 13L49 13L45 12z"/>
<path style="fill:#ffffff; stroke:none;" d="M49 12L50 13L49 12z"/>
<path style="fill:#4b3d00; stroke:none;" d="M27 13L25 14L26 19L29 19L27 13z"/>
<path style="fill:#2e2709; stroke:none;" d="M30.3333 13.6667L30.6667 14.3333L30.3333 13.6667z"/>
<path style="fill:#ffd100; stroke:none;" d="M31 14L34 15L32 23L37 23C36.1776 18.5912 36.5666 13.4352 31 14z"/>
<path style="fill:#e5d077; stroke:none;" d="M34 13L34 14L36 21L37 21L38 13L34 13z"/>
<path style="fill:#7c6e33; stroke:none;" d="M41 13L41 17L42 17L41 13z"/>
<path style="fill:#ffffff; stroke:none;" d="M14 14L15 15L14 14z"/>
<path style="fill:#534400; stroke:none;" d="M44 14L47 16L47 15L44 14z"/>
<path style="fill:#d2ab00; stroke:none;" d="M45 14L45 15L48 22C50.5725 18.1665 49.6876 14.8141 45 14z"/>
<path style="fill:#b9bbc2; stroke:none;" d="M50 14L51 15L50 14z"/>
<path style="fill:#2f2a14; stroke:none;" d="M31.6667 15.3333L32.3333 15.6667L31.6667 15.3333z"/>
<path style="fill:#615001; stroke:none;" d="M33 15L30 24L31 24L33 15z"/>
<path style="fill:#9d9265; stroke:none;" d="M37.3333 15.6667L37.6667 16.3333L37.3333 15.6667z"/>
<path style="fill:#e1b900; stroke:none;" d="M15 24L16 24C16.5387 19.2201 18.1614 17.3738 23 17C16.8593 14.4513 15.065 18.512 15 24z"/>
<path style="fill:#ffffff; stroke:none;" d="M51.3333 16.6667L51.6667 17.3333L51.3333 16.6667z"/>
<path style="fill:#868585; stroke:none;" d="M12 17L12 26L13 26L12 17z"/>
<path style="fill:#040401; stroke:none;" d="M17 19L20 18L18 23L23 23L22 26L26 26L24 17L17 19z"/>
<path style="fill:#4d4628; stroke:none;" d="M37 17L36 24L40 25L41 21L37 17z"/>
<path style="fill:#ad8d00; stroke:none;" d="M38.3333 17.6667L38.6667 18.3333L38.3333 17.6667z"/>
<path style="fill:#545454; stroke:none;" d="M43 20L44 20L46 18C43.8603 16.8822 43.4732 17.7492 43 20z"/>
<path style="fill:#696245; stroke:none;" d="M14 18L14 23L15 23L14 18z"/>
<path style="fill:#4a4b4c; stroke:none;" d="M18.6667 18.3333L19.3333 18.6667L18.6667 18.3333z"/>
<path style="fill:#ffffff; stroke:none;" d="M45.3333 18.6667L45.6667 19.3333L45.3333 18.6667z"/>
<path style="fill:#aaadb9; stroke:none;" d="M51 18L51 23L52 23L51 18z"/>
<path style="fill:#362d03; stroke:none;" d="M16 19C16.3416 23.3966 17.772 24.8593 22 26L16 19z"/>
<path style="fill:#393c46; stroke:none;" d="M17 19L17 23L18 23L17 19z"/>
<path style="fill:#ffffff; stroke:none;" d="M18 19L19 20L18 19z"/>
<path style="fill:#7d7d7c; stroke:none;" d="M20 19L21 20L20 19z"/>
<path style="fill:#efefef; stroke:none;" d="M20 20L21 21L20 20z"/>
<path style="fill:#b2b3b2; stroke:none;" d="M43 20L44 21L43 20z"/>
<path style="fill:#b7a55a; stroke:none;" d="M49.3333 20.6667L49.6667 21.3333L49.3333 20.6667z"/>
<path style="fill:#eed671; stroke:none;" d="M37.3333 21.6667L37.6667 22.3333L37.3333 21.6667z"/>
<path style="fill:#8d8e92; stroke:none;" d="M45 21L46 22L45 21z"/>
<path style="fill:#949494; stroke:none;" d="M21 22L22 23L21 22z"/>
<path style="fill:#616368; stroke:none;" d="M42.6667 22.3333L43.3333 22.6667L42.6667 22.3333z"/>
<path style="fill:#f4d232; stroke:none;" d="M46 24L49 22L46 24z"/>
<path style="fill:#ffffff; stroke:none;" d="M19 23L20 24L19 23z"/>
<path style="fill:#73757e; stroke:none;" d="M22.3333 23.6667L22.6667 24.3333L22.3333 23.6667z"/>
<path style="fill:#1c1a10; stroke:none;" d="M31 23L31 24L36 24L31 23z"/>
<path style="fill:#b19000; stroke:none;" d="M45 23L40 30L42 30L45 23z"/>
<path style="fill:#ffefaa; stroke:none;" d="M15 24L16 25L15 24z"/>
<path style="fill:#c9b665; stroke:none;" d="M16.3333 24.6667L16.6667 25.3333L16.3333 24.6667z"/>
<path style="fill:#ac8d00; stroke:none;" d="M34 24L34 25L37 25L34 24z"/>
<path style="fill:#ebecec; stroke:none;" d="M50 24L51 25L50 24z"/>
<path style="fill:#bb9900; stroke:none;" d="M17 25L26 31C27.7673 25.7858 20.7342 25.4827 17 25z"/>
<path style="fill:#aeaeac; stroke:none;" d="M48 25L49 26L48 25z"/>
<path style="fill:#ffffff; stroke:none;" d="M12 26L13 27L12 26z"/>
<path style="fill:#4b3d01; stroke:none;" d="M25 26L25 27L27 31L28 31L28 26L25 26z"/>
<path style="fill:#ffffff; stroke:none;" d="M46 26L47 27L46 26z"/>
<path style="fill:#b8b8b8; stroke:none;" d="M14 27L15 28L14 27z"/>
<path style="fill:#555557; stroke:none;" d="M28 27L28 33L31 30L31 29L28 27z"/>
<path style="fill:#fcfdfd; stroke:none;" d="M43 27L46 30L43 27z"/>
<path style="fill:#6b6c70; stroke:none;" d="M17.6667 28.3333L18.3333 28.6667L17.6667 28.3333z"/>
<path style="fill:#ffffff; stroke:none;" d="M29 28L30 29L29 28M21.3333 29.6667L21.6667 30.3333L21.3333 29.6667z"/>
<path style="fill:#acacac; stroke:none;" d="M22 29L23 32L24 32L24 29L22 29z"/>
<path style="fill:#1a1a1a; stroke:none;" d="M28 44C28.4147 39.3221 30.8352 34.2398 35 32L39 43L36 44L36 45L42 45L42 44L40 43L37 29C31.0956 29.1432 21.8787 39.3341 28 44z"/>
<path style="fill:#4f5158; stroke:none;" d="M37 29L37 33L38 33L39 29L37 29z"/>
<path style="fill:#9d8200; stroke:none;" d="M31 30L31 31L36 31L31 30z"/>
<path style="fill:#aaaaaa; stroke:none;" d="M38 30L39 31L38 30z"/>
<path style="fill:#fafcfc; stroke:none;" d="M42 31L46 33L42 31z"/>
<path style="fill:#cbcbc9; stroke:none;" d="M39 31L40 32L39 31z"/>
<path style="fill:#6c7184; stroke:none;" d="M40.6667 31.3333L41.3333 31.6667L40.6667 31.3333z"/>
<path style="fill:#5b5d65; stroke:none;" d="M24 32L24 33L27 33L24 32z"/>
<path style="fill:#fbfcfd; stroke:none;" d="M27 32L26 36L27 32z"/>
<path style="fill:#bc9901; stroke:none;" d="M28 42L38 43L38 42L33 42L35 33C30.5094 32.0047 29.1445 38.5681 28 42z"/>
<path style="fill:#ffcf00; stroke:none;" d="M33 33L33 42L38 42L33 33z"/>
<path style="fill:#ffffff; stroke:none;" d="M37 33L38 34L37 33z"/>
<path style="fill:#edf1ff; stroke:none;" d="M29 34L30 35L29 34z"/>
<path style="fill:#ffffff; stroke:none;" d="M28 36L29 37L28 36z"/>
<path style="fill:#dbdcde; stroke:none;" d="M37 36L38 37L37 36z"/>
<path style="fill:#c4c4c4; stroke:none;" d="M27 38L28 39L27 38z"/>
<path style="fill:#bbbbba; stroke:none;" d="M38 38L39 39L38 38z"/>
<path style="fill:#87826c; stroke:none;" d="M37 40L38 41L37 40z"/>
<path style="fill:#9b9b9a; stroke:none;" d="M25 41L26 42L25 41z"/>
<path style="fill:#e0e1e1; stroke:none;" d="M24 42L25 43L24 42z"/>
<path style="fill:#675400; stroke:none;" d="M27 42L27 43L32 43L27 42z"/>
<path style="fill:#bcb9a7; stroke:none;" d="M38 42L39 43L38 42z"/>
<path style="fill:#ffffff; stroke:none;" d="M42 42L43 43L42 42M23 43L24 44L23 43z"/>
<path style="fill:#adadad; stroke:none;" d="M21 44L21 46L23 44L21 44z"/>
<path style="fill:#965700; stroke:none;" d="M30 44L30 53L43 53C42.7947 44.5378 37.5006 44.1548 30 44z"/>
<path style="fill:#764500; stroke:none;" d="M25 45L24 52L26 50L27 53L28 53L27 45L25 45z"/>
<path style="fill:#b76d00; stroke:none;" d="M27 45L28 48L27 45z"/>
<path style="fill:#ffffff; stroke:none;" d="M44 45L45 46L44 45z"/>
<path style="fill:#454545; stroke:none;" d="M21 46L21 51L22 51L21 46z"/>
<path style="fill:#5d5446; stroke:none;" d="M32 48L40 47L32 48z"/>
<path style="fill:#686969; stroke:none;" d="M44 46L44 49L45 49L44 46z"/>
<path style="fill:#1e1b16; stroke:none;" d="M31 47L31 50L32 50L31 47z"/>
<path style="fill:#afaca5; stroke:none;" d="M32 50L41 50C38.6057 46.3074 34.3943 46.3074 32 50z"/>
<path style="fill:#ffffff; stroke:none;" d="M19 48L19 51L21 48L19 48z"/>
<path style="fill:#cfcfcf; stroke:none;" d="M45.3333 49.6667L45.6667 50.3333L45.3333 49.6667z"/>
<path style="fill:#9c9d9d; stroke:none;" d="M23 50L23 55L24 55L23 50z"/>
<path style="fill:#3b2300; stroke:none;" d="M25 50L24 55L28 55L25 50z"/>
<path style="fill:#2d2b28; stroke:none;" d="M32 50L32 51L41 51L32 50z"/>
<path style="fill:#5f5f60; stroke:none;" d="M45.3333 51.6667L45.6667 52.3333L45.3333 51.6667z"/>
<path style="fill:#fcfcfc; stroke:none;" d="M20 52L20 55L21 55L20 52z"/>
<path style="fill:#d1d1d1; stroke:none;" d="M46 52L47 53L46 52z"/>
<path style="fill:#bfc3c8; stroke:none;" d="M47.3333 53.6667L47.6667 54.3333L47.3333 53.6667z"/>
<path style="fill:#502f00; stroke:none;" d="M29 54C30.1207 59.2299 41.4973 57 46 57L46 56L30 56L30 55L32 55L29 54z"/>
<path style="fill:#724400; stroke:none;" d="M30 55L30 56L46 55L30 55z"/>
<path style="fill:#7f7f7f; stroke:none;" d="M20 55L21 56L20 55z"/>
<path style="fill:#744500; stroke:none;" d="M22 59L28 55L22 59z"/>
<path style="fill:#ba6e00; stroke:none;" d="M33 55L33 56L46 56L33 55z"/>
<path style="fill:#525355; stroke:none;" d="M47 55L47 58L48 58L47 55z"/>
<path style="fill:#adadae; stroke:none;" d="M19.3333 56.6667L19.6667 57.3333L19.3333 56.6667z"/>
<path style="fill:#5d5b56; stroke:none;" d="M21.3333 57.6667L21.6667 58.3333L21.3333 57.6667z"/>
<path style="fill:#6c6c6c; stroke:none;" d="M19 58C19.9036 62.2169 24.356 61 28 61L28 60L19 58z"/>
<path style="fill:#9c9c9b; stroke:none;" d="M45 58L46 59L45 58z"/>
<path style="fill:#a1a1a0; stroke:none;" d="M43 59L44 60L43 59z"/>
<path style="fill:#a5a5a4; stroke:none;" d="M28 60L28 61L32 61L28 60z"/>
<path style="fill:#ffffff; stroke:none;" d="M32 60L32 61L41 61L32 60z"/>
</svg>
