<svg id="svg" version="1.1" xmlns="http://www.w3.org/2000/svg" xmlns:xlink="http://www.w3.org/1999/xlink" width="200" height="199.5" viewBox="0, 0, 200,199.5">
<g id="svgg">
<path id="path0" d="M196.108 43.808 C 197.370 43.887,199.436 43.887,200.699 43.808 C 201.961 43.729,200.928 43.664,198.403 43.664 C 195.878 43.664,194.845 43.729,196.108 43.808 M187.325 44.198 C 187.929 44.290,188.917 44.290,189.521 44.198 C 190.125 44.107,189.631 44.032,188.423 44.032 C 187.216 44.032,186.722 44.107,187.325 44.198 M207.285 44.198 C 207.889 44.290,208.877 44.290,209.481 44.198 C 210.085 44.107,209.591 44.032,208.383 44.032 C 207.176 44.032,206.682 44.107,207.285 44.198 M182.934 44.587 C 183.318 44.687,183.947 44.687,184.331 44.587 C 184.716 44.486,184.401 44.404,183.633 44.404 C 182.864 44.404,182.550 44.486,182.934 44.587 M212.475 44.587 C 212.859 44.687,213.488 44.687,213.872 44.587 C 214.256 44.486,213.942 44.404,213.174 44.404 C 212.405 44.404,212.091 44.486,212.475 44.587 M168.064 47.106 C 167.262 47.363,167.222 47.428,167.864 47.437 C 168.303 47.444,169.022 47.294,169.461 47.106 C 170.478 46.669,169.429 46.669,168.064 47.106 M160.080 49.301 C 158.653 49.816,157.675 50.251,157.906 50.268 C 158.138 50.285,159.575 49.864,161.100 49.331 C 162.625 48.799,163.603 48.363,163.273 48.364 C 162.944 48.365,161.507 48.787,160.080 49.301 M153.892 51.283 C 152.350 51.989,153.068 51.999,154.890 51.297 C 155.659 51.001,156.018 50.754,155.689 50.747 C 155.359 50.740,154.551 50.981,153.892 51.283 M143.713 54.890 C 143.164 55.204,142.894 55.461,143.114 55.461 C 143.333 55.461,143.962 55.204,144.511 54.890 C 145.060 54.576,145.329 54.320,145.110 54.320 C 144.890 54.320,144.261 54.576,143.713 54.890 M130.838 60.504 C 128.917 61.483,127.345 62.374,127.345 62.483 C 127.345 62.662,134.491 59.211,134.897 58.836 C 135.479 58.299,133.853 58.967,130.838 60.504 M122.052 65.219 C 120.135 66.398,119.599 66.955,121.158 66.149 C 122.409 65.502,124.097 64.297,123.752 64.297 C 123.643 64.296,122.878 64.712,122.052 65.219 M276.447 65.676 C 276.886 66.033,277.605 66.502,278.044 66.718 L 278.842 67.110 278.044 66.460 C 277.605 66.102,276.886 65.633,276.447 65.418 L 275.649 65.026 276.447 65.676 M115.269 69.448 C 112.909 70.976,110.978 72.317,110.978 72.428 C 110.978 72.632,118.831 67.668,119.541 67.015 C 120.434 66.194,119.299 66.841,115.269 69.448 M283.303 69.892 C 283.798 70.492,286.228 72.020,286.228 71.732 C 286.228 71.639,285.464 71.060,284.531 70.444 C 283.598 69.829,283.045 69.580,283.303 69.892 M108.683 73.892 C 107.750 74.553,106.986 75.182,106.986 75.291 C 106.986 75.399,107.794 74.931,108.782 74.251 C 109.770 73.572,110.579 72.934,110.579 72.835 C 110.579 72.560,110.503 72.603,108.683 73.892 M290.020 74.522 C 290.240 74.725,291.317 75.570,292.415 76.400 L 294.411 77.911 292.814 76.445 C 291.936 75.639,290.858 74.794,290.419 74.567 C 289.980 74.340,289.800 74.319,290.020 74.522 M102.349 78.826 C 91.553 87.591,79.184 100.720,71.040 112.061 C 68.935 114.991,70.034 113.937,72.687 110.479 C 81.456 99.053,91.793 87.972,99.966 81.236 C 105.545 76.638,106.432 75.874,106.188 75.873 C 106.078 75.872,104.350 77.201,102.349 78.826 M296.806 79.714 C 298.362 81.281,301.052 83.448,300.000 82.287 C 299.341 81.560,298.263 80.593,297.605 80.138 C 296.946 79.684,296.587 79.493,296.806 79.714 M302.283 84.444 C 302.880 85.072,303.441 85.506,303.528 85.408 C 303.616 85.310,303.127 84.796,302.442 84.266 L 301.198 83.302 302.283 84.444 M306.885 88.689 C 308.587 90.262,312.854 94.433,316.367 97.958 C 319.880 101.483,322.007 103.474,321.094 102.383 C 318.496 99.278,304.652 85.828,304.055 85.828 C 303.909 85.828,305.183 87.116,306.885 88.689 M326.946 110.579 C 327.415 111.238,327.889 111.776,327.998 111.776 C 328.108 111.776,327.814 111.238,327.345 110.579 C 326.876 109.920,326.403 109.381,326.293 109.381 C 326.183 109.381,326.477 109.920,326.946 110.579 M329.823 114.805 C 330.326 115.701,331.061 116.869,331.455 117.399 C 331.849 117.929,331.759 117.629,331.255 116.732 C 330.751 115.835,330.017 114.668,329.623 114.138 C 329.229 113.607,329.319 113.908,329.823 114.805 M68.448 115.868 C 67.833 116.801,67.584 117.354,67.896 117.097 C 68.496 116.601,70.024 114.172,69.736 114.172 C 69.643 114.172,69.064 114.935,68.448 115.868 M336.727 126.946 C 337.067 127.605,337.436 128.144,337.545 128.144 C 337.655 128.144,337.466 127.605,337.126 126.946 C 336.785 126.287,336.417 125.749,336.307 125.749 C 336.197 125.749,336.386 126.287,336.727 126.946 M59.353 131.955 C 58.415 133.921,58.547 134.256,59.528 132.397 C 59.973 131.553,60.267 130.792,60.180 130.706 C 60.094 130.620,59.722 131.182,59.353 131.955 M209.821 135.935 C 209.200 137.029,208.243 138.712,207.696 139.674 C 205.362 143.779,204.418 145.049,204.202 144.372 C 204.087 144.009,203.908 143.443,203.805 143.114 C 203.494 142.117,202.997 142.443,202.954 143.673 C 202.931 144.308,202.347 145.748,201.656 146.871 C 200.965 147.995,200.399 149.097,200.399 149.321 C 200.399 150.094,199.113 151.689,198.697 151.432 C 198.452 151.281,198.399 151.367,198.568 151.640 C 198.969 152.289,196.939 156.291,195.447 157.795 C 194.767 158.479,194.436 158.904,194.711 158.738 C 195.479 158.273,195.322 159.568,194.511 160.385 C 194.127 160.772,193.576 161.625,193.286 162.281 C 192.997 162.937,192.353 164.102,191.855 164.870 C 186.864 172.573,185.853 173.991,185.507 173.777 C 185.286 173.641,185.229 173.728,185.379 173.970 C 185.528 174.212,184.972 175.374,184.143 176.551 C 183.313 177.728,181.916 179.724,181.038 180.986 C 180.160 182.248,178.582 184.392,177.532 185.752 C 176.482 187.111,175.358 188.583,175.034 189.022 C 174.089 190.301,172.329 192.436,171.357 193.481 C 170.863 194.013,170.459 194.619,170.459 194.829 C 170.459 195.038,170.190 195.210,169.860 195.210 C 169.531 195.210,169.261 195.434,169.260 195.709 C 169.260 195.983,168.724 196.566,168.071 197.004 C 167.417 197.442,166.682 198.283,166.438 198.872 C 166.034 199.849,163.989 201.198,162.914 201.198 C 162.672 201.198,162.475 201.377,162.475 201.597 C 162.475 202.256,160.880 203.641,160.437 203.367 C 160.210 203.227,159.517 203.681,158.896 204.376 C 158.120 205.245,157.703 205.476,157.558 205.115 C 157.421 204.772,157.338 204.832,157.317 205.289 C 157.300 205.674,157.087 205.988,156.844 205.988 C 156.601 205.988,155.665 206.572,154.763 207.285 C 153.862 207.999,153.263 208.358,153.432 208.084 C 153.601 207.809,153.560 207.585,153.341 207.585 C 153.121 207.585,152.828 207.767,152.691 207.991 C 152.553 208.214,152.293 208.305,152.113 208.195 C 151.934 208.084,151.567 208.258,151.297 208.583 C 151.028 208.907,150.655 209.078,150.468 208.963 C 150.282 208.848,149.763 209.119,149.316 209.566 C 148.869 210.013,148.203 210.379,147.836 210.379 C 147.469 210.379,146.853 210.665,146.467 211.014 C 145.479 211.908,137.017 214.014,136.775 213.425 C 136.673 213.177,136.576 213.288,136.558 213.673 C 136.524 214.445,136.207 214.536,135.377 214.010 C 134.932 213.728,134.897 213.078,135.196 210.649 C 135.400 208.993,135.423 207.726,135.248 207.835 C 135.073 207.943,134.930 208.302,134.930 208.632 C 134.930 209.264,133.629 212.670,132.738 214.371 C 132.450 214.920,131.341 216.986,130.272 218.962 C 127.847 223.445,123.972 231.953,121.726 237.725 C 120.787 240.140,119.892 242.206,119.737 242.315 C 117.581 243.849,118.644 281.658,121.142 292.251 C 121.760 294.875,121.906 296.091,121.561 295.746 C 118.780 292.965,116.185 264.428,117.429 250.299 C 117.574 248.653,117.569 247.934,117.417 248.703 L 117.140 250.100 116.853 248.148 C 116.696 247.074,116.551 245.278,116.533 244.156 C 116.500 242.216,116.477 242.175,116.075 243.313 C 114.976 246.422,115.627 279.860,116.961 288.822 C 117.157 290.140,117.525 292.655,117.778 294.411 C 120.090 310.467,125.304 318.287,133.733 318.339 C 142.930 318.397,147.637 310.740,150.283 291.417 C 151.929 279.397,152.036 278.843,153.673 273.911 C 158.693 258.787,172.631 240.455,192.599 222.717 C 193.687 221.750,195.394 220.234,196.391 219.350 C 197.388 218.465,199.251 216.867,200.531 215.798 L 202.858 213.856 205.861 216.808 C 229.182 239.738,240.300 258.759,242.113 278.834 C 244.056 300.356,247.998 309.105,256.572 310.921 C 267.918 313.326,274.581 300.416,277.454 270.459 C 278.458 259.996,279.021 237.714,278.313 236.494 C 277.935 235.842,277.867 235.977,277.856 237.399 C 277.850 238.318,277.566 240.384,277.225 241.990 C 276.807 243.965,276.688 245.815,276.858 247.705 C 277.214 251.661,276.392 265.387,275.428 271.600 C 274.378 278.367,271.895 288.233,270.995 289.212 C 270.798 289.427,270.816 289.068,271.035 288.414 C 273.432 281.250,276.021 255.590,275.283 246.307 C 275.152 244.661,275.027 241.384,275.005 239.025 C 274.983 236.666,274.833 234.818,274.672 234.917 C 274.511 235.017,273.876 233.623,273.261 231.821 C 270.890 224.864,264.864 210.898,262.804 207.585 C 262.326 206.816,261.621 205.060,261.238 203.681 C 260.411 200.706,259.760 200.881,260.368 203.915 C 260.842 206.274,260.468 207.129,259.208 206.571 C 258.809 206.395,258.124 206.220,257.685 206.183 C 255.912 206.034,249.654 203.849,248.986 203.147 C 248.594 202.733,247.947 202.395,247.551 202.395 C 247.154 202.395,246.414 202.036,245.908 201.597 C 245.402 201.158,244.746 200.798,244.450 200.798 C 244.154 200.798,243.912 200.608,243.912 200.376 C 243.912 200.143,243.745 200.056,243.541 200.183 C 243.336 200.309,243.056 200.230,242.918 200.007 C 242.514 199.352,241.918 199.541,242.186 200.239 C 242.344 200.651,242.078 200.545,241.437 199.940 C 238.570 197.237,237.987 196.815,237.790 197.304 C 237.668 197.605,237.575 197.526,237.556 197.106 C 237.539 196.722,237.329 196.407,237.090 196.407 C 236.851 196.407,236.298 196.003,235.862 195.509 C 235.426 195.015,235.183 194.835,235.322 195.110 C 235.792 196.033,234.850 195.619,234.088 194.567 C 233.673 193.993,233.117 193.295,232.852 193.016 C 232.473 192.615,232.549 192.349,233.212 191.763 C 240.022 185.737,245.110 173.232,245.110 162.520 C 245.110 157.580,244.641 156.728,242.132 157.104 C 238.708 157.618,236.523 155.023,235.476 149.202 C 234.877 145.871,234.642 145.835,234.043 148.986 C 233.124 153.823,229.438 159.618,226.871 160.263 C 224.426 160.876,222.375 157.719,221.205 151.540 C 220.342 146.978,220.014 146.554,217.051 146.152 C 213.425 145.660,212.171 143.747,211.397 137.532 L 210.951 133.945 209.821 135.935 M162.330 136.327 C 162.152 137.206,161.913 138.283,161.799 138.723 C 161.607 139.458,161.643 139.471,162.258 138.882 C 162.736 138.425,162.887 137.743,162.790 136.487 L 162.653 134.731 162.330 136.327 M163.847 141.018 L 162.675 142.315 163.972 141.143 C 165.181 140.050,165.453 139.721,165.145 139.721 C 165.076 139.721,164.492 140.304,163.847 141.018 M343.741 142.315 C 343.741 142.535,343.998 143.164,344.311 143.713 C 344.625 144.261,344.882 144.531,344.882 144.311 C 344.882 144.092,344.625 143.463,344.311 142.914 C 343.998 142.365,343.741 142.096,343.741 142.315 M152.865 146.849 C 152.210 147.380,152.067 147.883,152.168 149.303 L 152.295 151.089 153.792 149.044 C 155.656 146.498,155.055 145.076,152.865 146.849 M346.568 150.100 C 346.568 150.429,346.810 151.327,347.106 152.096 C 347.402 152.864,347.644 153.224,347.644 152.894 C 347.644 152.565,347.402 151.667,347.106 150.898 C 346.810 150.130,346.568 149.770,346.568 150.100 M242.146 169.047 C 241.457 179.614,233.360 192.048,224.351 196.371 C 223.547 196.758,223.586 196.680,224.551 195.974 C 234.218 188.895,241.174 175.277,241.561 162.675 C 241.608 161.153,241.629 161.182,241.995 163.273 C 242.206 164.481,242.274 167.079,242.146 169.047 M350.579 164.671 C 350.579 165.110,350.722 165.918,350.898 166.467 C 351.151 167.257,351.218 167.299,351.218 166.667 C 351.218 166.228,351.074 165.419,350.898 164.870 C 350.645 164.080,350.579 164.038,350.579 164.671 M237.937 170.009 C 234.784 182.357,224.844 194.292,212.023 201.124 C 208.355 203.078,208.290 203.092,208.771 201.827 C 209.034 201.135,208.987 200.734,208.604 200.417 C 207.455 199.463,207.623 198.468,209.123 197.345 C 213.561 194.024,220.526 186.384,224.448 180.534 C 225.665 178.719,229.329 174.429,232.592 171.000 C 239.275 163.975,239.488 163.935,237.937 170.009 M351.789 171.257 C 351.789 172.026,351.871 172.340,351.972 171.956 C 352.072 171.572,352.072 170.943,351.972 170.559 C 351.871 170.175,351.789 170.489,351.789 171.257 M352.588 176.447 C 352.588 177.216,352.670 177.530,352.770 177.146 C 352.871 176.761,352.871 176.133,352.770 175.749 C 352.670 175.364,352.588 175.679,352.588 176.447 M353.094 180.040 C 354.036 192.077,354.169 195.819,353.920 203.194 C 353.228 223.703,352.924 231.025,352.719 232.136 L 352.498 233.333 352.878 232.175 C 354.860 226.119,355.130 189.634,353.265 179.677 L 352.922 177.844 353.094 180.040 M46.009 180.240 C 46.013 181.118,46.095 181.430,46.191 180.933 C 46.286 180.437,46.282 179.718,46.182 179.337 C 46.083 178.955,46.004 179.361,46.009 180.240 M45.610 184.232 C 45.614 185.110,45.696 185.422,45.791 184.925 C 45.887 184.429,45.883 183.710,45.783 183.329 C 45.683 182.947,45.605 183.353,45.610 184.232 M45.256 191.417 C 45.257 193.613,45.324 194.460,45.405 193.300 C 45.485 192.140,45.485 190.344,45.403 189.308 C 45.321 188.272,45.255 189.222,45.256 191.417 M45.256 202.994 C 45.257 205.190,45.324 206.037,45.405 204.877 C 45.485 203.717,45.485 201.920,45.403 200.885 C 45.321 199.849,45.255 200.798,45.256 202.994 M45.618 210.379 C 45.618 211.367,45.696 211.771,45.791 211.277 C 45.886 210.783,45.886 209.975,45.791 209.481 C 45.696 208.987,45.618 209.391,45.618 210.379 M272.190 211.209 C 272.272 212.068,272.470 212.689,272.630 212.590 C 272.966 212.382,272.691 210.050,272.302 209.809 C 272.159 209.721,272.108 210.350,272.190 211.209 M46.009 214.571 C 46.013 215.449,46.095 215.761,46.191 215.265 C 46.286 214.768,46.282 214.050,46.182 213.668 C 46.083 213.286,46.004 213.693,46.009 214.571 M46.400 217.964 C 46.400 218.733,46.482 219.047,46.583 218.663 C 46.683 218.278,46.683 217.650,46.583 217.265 C 46.482 216.881,46.400 217.196,46.400 217.964 M122.609 217.432 C 122.579 217.908,122.452 218.627,122.325 219.029 C 122.108 219.721,122.120 219.723,122.551 219.050 C 122.802 218.660,122.929 217.941,122.835 217.454 C 122.664 216.568,122.664 216.568,122.609 217.432 M46.799 220.758 C 46.799 221.527,46.881 221.841,46.982 221.457 C 47.082 221.073,47.082 220.444,46.982 220.060 C 46.881 219.676,46.799 219.990,46.799 220.758 M224.048 232.466 C 230.843 240.347,241.268 259.358,241.097 263.555 C 241.085 263.839,240.514 262.545,239.829 260.679 C 236.130 250.614,227.788 237.333,219.281 227.967 C 216.304 224.689,216.274 224.637,218.535 226.678 C 219.831 227.848,222.312 230.452,224.048 232.466 M47.991 228.343 C 47.987 228.892,48.128 229.790,48.303 230.339 C 48.733 231.681,48.733 230.232,48.303 228.543 C 48.030 227.467,47.998 227.447,47.991 228.343 M274.352 230.140 C 274.357 231.018,274.438 231.330,274.534 230.834 C 274.629 230.337,274.626 229.619,274.526 229.237 C 274.426 228.855,274.348 229.261,274.352 230.140 M48.737 231.830 C 48.718 232.101,49.221 234.975,49.854 238.217 C 50.487 241.459,51.288 245.908,51.634 248.104 C 52.510 253.669,57.719 268.162,58.546 267.336 C 58.624 267.258,57.875 265.455,56.883 263.330 C 54.567 258.376,53.165 254.068,52.640 250.299 C 51.939 245.267,48.826 230.535,48.737 231.830 M175.089 236.826 C 167.005 245.532,158.813 257.324,155.363 265.221 C 155.086 265.853,154.757 266.268,154.631 266.142 C 153.698 265.208,163.314 249.239,168.499 243.114 C 170.934 240.237,177.516 233.610,177.996 233.551 C 178.079 233.541,176.771 235.015,175.089 236.826 M350.727 240.547 C 350.580 241.133,350.537 241.688,350.631 241.782 C 350.725 241.876,350.922 241.475,351.069 240.890 C 351.216 240.305,351.259 239.749,351.165 239.655 C 351.071 239.561,350.874 239.962,350.727 240.547 M347.362 251.029 C 346.184 254.262,346.335 254.682,347.547 251.544 C 348.088 250.143,348.461 248.927,348.375 248.840 C 348.288 248.754,347.833 249.739,347.362 251.029 M343.788 260.099 C 342.585 262.575,342.719 262.921,343.958 260.540 C 344.512 259.475,344.897 258.536,344.813 258.453 C 344.730 258.369,344.268 259.110,343.788 260.099 M340.206 267.682 C 338.843 270.417,337.816 272.655,337.923 272.655 C 338.187 272.655,342.999 263.026,342.823 262.849 C 342.746 262.772,341.568 264.947,340.206 267.682 M58.684 268.019 C 58.673 270.400,71.758 290.070,79.162 298.802 C 93.550 315.772,119.240 334.614,134.132 339.119 C 136.105 339.716,134.588 338.907,127.531 335.602 C 100.357 322.876,78.432 302.080,62.007 273.453 C 60.180 270.269,58.685 267.824,58.684 268.019 M153.540 269.326 C 153.203 269.949,152.919 270.333,152.910 270.178 C 152.883 269.704,153.812 267.850,153.988 268.027 C 154.080 268.118,153.878 268.703,153.540 269.326 M152.117 273.198 C 151.558 274.669,151.244 274.523,151.764 273.034 C 151.997 272.364,152.262 271.890,152.353 271.980 C 152.443 272.071,152.337 272.619,152.117 273.198 M336.727 274.251 C 336.386 274.910,336.197 275.449,336.307 275.449 C 336.417 275.449,336.785 274.910,337.126 274.251 C 337.466 273.593,337.655 273.054,337.545 273.054 C 337.436 273.054,337.067 273.593,336.727 274.251 M332.733 280.938 C 312.074 312.961,285.277 333.291,245.709 346.962 C 240.659 348.707,235.090 350.645,233.333 351.270 C 229.643 352.581,225.108 353.560,219.162 354.328 C 215.081 354.855,215.056 354.864,218.230 354.674 C 224.329 354.308,235.567 351.752,240.120 349.696 C 240.559 349.498,244.152 348.158,248.104 346.719 C 269.684 338.859,283.603 331.262,299.401 318.719 C 312.305 308.474,328.957 289.351,335.307 277.487 C 336.338 275.561,335.331 276.911,332.733 280.938 M253.223 307.853 C 253.698 308.108,254.897 308.540,255.886 308.813 C 257.458 309.247,257.533 309.314,256.487 309.343 C 253.530 309.426,250.764 307.712,250.106 305.389 C 249.862 304.528,249.997 304.597,251.091 305.891 C 251.788 306.716,252.747 307.599,253.223 307.853 M142.059 313.414 C 140.766 315.729,139.510 316.548,136.920 316.767 L 134.731 316.952 136.327 316.499 C 138.585 315.858,140.589 314.502,141.723 312.847 C 143.023 310.949,143.236 311.307,142.059 313.414 M135.357 339.452 C 135.685 339.824,144.201 343.358,144.367 343.191 C 144.444 343.114,142.756 342.310,140.617 341.405 C 136.061 339.477,135.047 339.101,135.357 339.452 M145.309 343.645 C 145.639 343.849,146.357 344.135,146.906 344.282 C 147.600 344.468,147.722 344.436,147.305 344.179 C 146.976 343.976,146.257 343.689,145.709 343.542 C 145.015 343.357,144.893 343.388,145.309 343.645 M159.481 348.503 C 160.579 348.908,161.747 349.240,162.076 349.240 C 162.405 349.240,161.776 348.908,160.679 348.503 C 159.581 348.098,158.413 347.766,158.084 347.766 C 157.754 347.766,158.383 348.098,159.481 348.503 M163.473 349.701 C 163.912 349.889,164.541 350.044,164.870 350.044 C 165.248 350.044,165.174 349.917,164.671 349.701 C 164.232 349.512,163.603 349.358,163.273 349.358 C 162.896 349.358,162.970 349.484,163.473 349.701 M166.102 350.267 C 166.637 350.802,179.838 353.724,181.437 353.661 C 181.876 353.644,180.170 353.213,177.645 352.703 C 175.120 352.193,171.587 351.398,169.794 350.938 C 166.496 350.090,165.798 349.963,166.102 350.267 M183.832 354.078 C 184.711 354.270,187.136 354.520,189.222 354.633 C 192.276 354.799,192.509 354.777,190.419 354.524 C 185.474 353.926,182.095 353.697,183.832 354.078 M195.309 355.185 C 196.572 355.264,198.638 355.264,199.900 355.185 C 201.163 355.106,200.130 355.041,197.605 355.041 C 195.080 355.041,194.047 355.106,195.309 355.185 M207.086 355.186 C 208.458 355.264,210.704 355.264,212.076 355.186 C 213.448 355.108,212.325 355.044,209.581 355.044 C 206.836 355.044,205.714 355.108,207.086 355.186 " stroke="none" fill="#b92327" fill-rule="evenodd"></path><path id="path1" d="M186.627 31.613 C 175.453 32.330,153.595 36.423,148.703 38.715 C 148.263 38.920,147.096 39.293,146.108 39.543 C 145.120 39.794,144.132 40.139,143.912 40.310 C 143.693 40.482,142.505 40.911,141.272 41.264 C 140.040 41.618,138.513 42.177,137.879 42.508 C 137.245 42.838,136.582 43.110,136.405 43.111 C 136.229 43.113,135.285 43.473,134.309 43.912 C 133.333 44.351,131.682 45.089,130.639 45.551 C 124.586 48.235,110.561 55.710,109.780 56.668 C 109.671 56.802,108.593 57.533,107.385 58.291 C 95.014 66.057,77.775 81.691,69.317 92.814 C 66.750 96.191,61.059 104.087,59.823 105.988 C 57.813 109.081,53.493 116.127,53.493 116.314 C 53.493 116.419,52.636 118.000,51.589 119.829 C 49.803 122.948,48.124 126.287,45.163 132.610 C 44.475 134.078,43.912 135.398,43.912 135.543 C 43.912 135.689,43.653 136.374,43.337 137.065 C 42.796 138.247,41.538 141.563,39.526 147.106 C 38.057 151.152,35.760 159.735,34.504 165.868 C 34.190 167.405,33.743 169.489,33.512 170.498 C 32.968 172.871,32.022 180.491,31.484 186.826 C 30.978 192.788,31.266 212.963,31.914 216.966 C 32.163 218.503,32.615 221.557,32.919 223.752 C 33.646 229.003,34.482 233.240,35.754 238.124 C 36.326 240.319,37.058 243.194,37.382 244.511 C 37.940 246.783,39.212 250.758,39.936 252.495 C 40.119 252.934,40.390 253.743,40.538 254.291 C 40.686 254.840,41.044 255.828,41.334 256.487 C 41.623 257.146,42.345 258.942,42.938 260.479 C 45.068 266.002,48.424 273.107,51.191 277.953 C 52.349 279.979,53.564 282.176,53.893 282.834 C 54.221 283.493,54.580 284.122,54.691 284.232 C 55.004 284.542,58.344 289.731,58.683 290.434 C 59.020 291.134,63.895 297.694,67.391 302.154 C 70.658 306.321,78.535 314.952,81.612 317.738 C 82.477 318.521,84.164 320.110,85.360 321.268 C 86.556 322.427,87.758 323.505,88.031 323.664 C 88.303 323.822,89.647 324.940,91.018 326.148 C 92.389 327.355,93.803 328.508,94.160 328.708 C 94.518 328.909,94.900 329.179,95.010 329.309 C 95.246 329.587,100.114 333.269,101.386 334.132 C 101.872 334.461,103.338 335.502,104.644 336.444 C 105.951 337.386,108.135 338.789,109.498 339.562 C 110.861 340.335,112.515 341.307,113.174 341.723 C 113.832 342.139,115.000 342.792,115.768 343.175 C 116.537 343.558,117.255 343.971,117.365 344.093 C 117.641 344.399,128.419 349.773,130.140 350.462 C 130.908 350.769,132.255 351.341,133.134 351.733 C 139.515 354.576,154.466 359.651,160.786 361.118 C 162.264 361.462,165.000 362.099,166.866 362.536 C 168.733 362.972,172.325 363.669,174.850 364.084 C 177.375 364.500,180.449 365.028,181.681 365.258 C 188.398 366.514,215.569 366.793,223.353 365.685 C 234.087 364.158,244.698 361.964,252.295 359.700 C 253.942 359.209,255.855 358.555,256.547 358.246 C 257.239 357.937,257.989 357.685,258.214 357.685 C 258.655 357.685,263.067 356.011,267.864 354.023 C 272.830 351.965,287.135 344.848,287.824 344.093 C 287.934 343.972,288.922 343.359,290.020 342.729 C 291.118 342.099,292.572 341.165,293.251 340.652 C 293.931 340.140,294.649 339.719,294.848 339.716 C 295.155 339.713,299.092 336.950,300.424 335.803 C 300.658 335.602,301.283 335.205,301.813 334.921 C 302.344 334.637,302.978 334.209,303.222 333.969 C 303.466 333.729,304.249 333.090,304.962 332.548 C 305.675 332.006,306.737 331.148,307.321 330.640 C 307.905 330.133,308.564 329.588,308.784 329.430 C 312.400 326.834,328.248 311.279,329.588 309.010 C 329.986 308.336,330.427 307.784,330.568 307.784 C 330.709 307.784,332.150 306.033,333.772 303.892 C 335.393 301.751,336.865 299.820,337.042 299.601 C 340.415 295.423,348.812 281.713,351.482 276.024 C 354.606 269.368,356.172 265.991,356.469 265.269 C 357.436 262.926,359.330 257.673,360.285 254.691 C 360.882 252.824,361.525 250.938,361.713 250.499 C 361.901 250.060,362.341 248.533,362.692 247.106 C 363.042 245.679,363.688 243.074,364.127 241.317 C 365.872 234.327,366.562 230.322,368.068 218.463 C 371.016 195.236,366.528 163.595,356.786 138.922 C 353.783 131.318,345.231 114.313,343.736 112.974 C 343.284 112.569,341.819 110.338,341.128 109.002 C 340.736 108.244,340.214 107.402,339.968 107.130 C 339.722 106.859,338.443 105.080,337.126 103.178 C 335.808 101.276,333.829 98.615,332.728 97.265 C 331.626 95.915,330.193 94.092,329.542 93.214 C 324.105 85.872,308.366 70.575,300.298 64.789 C 299.748 64.395,298.845 63.668,298.293 63.174 C 297.741 62.680,297.148 62.275,296.976 62.275 C 296.804 62.275,296.426 62.044,296.136 61.762 C 295.708 61.345,291.338 58.389,288.623 56.679 C 288.293 56.472,287.305 55.825,286.427 55.241 C 281.509 51.973,266.359 44.536,259.681 42.113 C 234.876 33.111,212.775 29.935,186.627 31.613 M214.371 44.539 C 252.472 48.916,288.529 67.971,318.560 99.601 C 331.618 113.354,343.560 136.600,349.720 160.257 C 356.465 186.159,356.362 224.658,349.490 245.908 C 334.054 293.649,299.509 327.997,248.104 346.719 C 244.152 348.158,240.559 349.498,240.120 349.696 C 227.824 355.249,201.562 356.997,180.838 353.643 C 170.025 351.893,152.065 346.561,139.806 341.461 C 136.450 340.065,133.619 338.922,133.514 338.922 C 131.815 338.922,113.974 329.191,107.984 324.997 C 80.549 305.785,55.347 271.467,51.666 248.303 C 51.334 246.218,50.354 240.828,49.489 236.327 C 46.156 218.999,45.533 213.757,45.246 200.599 C 44.175 151.647,64.444 108.929,103.393 78.050 C 113.227 70.254,126.825 61.899,135.226 58.492 C 136.491 57.979,139.052 56.892,140.918 56.076 C 164.272 45.868,190.319 41.777,214.371 44.539 M140.740 81.688 C 141.166 86.212,143.977 92.534,147.896 97.784 C 150.441 101.194,154.781 105.792,153.002 103.194 C 152.551 102.535,151.781 101.637,151.292 101.198 C 147.843 98.104,142.922 88.401,140.764 80.439 C 140.645 80.000,140.634 80.562,140.740 81.688 M256.913 95.233 C 254.717 101.701,251.294 107.365,246.329 112.746 C 243.693 115.603,244.623 114.934,248.316 111.317 C 252.573 107.148,257.251 98.615,258.079 93.513 C 258.484 91.012,258.208 91.419,256.913 95.233 M157.274 113.632 C 155.909 114.542,152.913 117.418,152.451 118.263 C 152.240 118.647,153.107 117.918,154.377 116.642 C 155.647 115.367,157.136 114.029,157.685 113.670 C 158.234 113.310,158.588 113.007,158.472 112.995 C 158.356 112.983,157.817 113.270,157.274 113.632 M240.120 124.033 C 240.339 124.241,241.597 125.380,242.914 126.563 L 245.309 128.715 243.313 126.603 C 242.216 125.441,240.958 124.303,240.519 124.073 C 240.080 123.843,239.900 123.825,240.120 124.033 M189.022 125.638 C 174.997 129.082,162.048 140.141,153.723 155.788 C 151.248 160.441,151.303 160.933,153.812 156.587 C 161.468 143.327,175.112 131.449,188.331 126.535 C 191.027 125.533,191.395 125.055,189.022 125.638 M241.561 162.675 C 241.174 175.277,234.218 188.895,224.551 195.974 C 223.586 196.680,223.547 196.758,224.351 196.371 C 235.332 191.101,244.016 174.811,241.995 163.273 C 241.629 161.182,241.608 161.153,241.561 162.675 M232.592 171.000 C 229.329 174.429,225.665 178.719,224.448 180.534 C 220.526 186.384,213.561 194.024,209.123 197.345 C 207.623 198.468,207.455 199.463,208.604 200.417 C 208.987 200.734,209.034 201.135,208.771 201.827 C 208.290 203.092,208.355 203.078,212.023 201.124 C 224.844 194.292,234.784 182.357,237.937 170.009 C 239.488 163.935,239.275 163.975,232.592 171.000 M273.099 215.288 C 273.074 215.683,273.409 219.188,273.844 223.078 C 276.401 245.971,275.098 276.269,271.035 288.414 C 270.816 289.068,270.798 289.427,270.995 289.212 C 271.894 288.234,274.378 278.368,275.427 271.610 C 277.354 259.188,277.280 242.937,275.225 227.668 C 274.174 219.861,273.176 214.050,273.099 215.288 M121.205 224.451 C 118.675 238.107,118.010 243.095,117.332 253.493 C 116.510 266.096,117.550 280.713,119.939 290.138 C 121.685 297.024,122.295 297.751,120.983 291.381 C 119.218 282.812,118.775 277.118,118.782 263.074 C 118.790 247.981,119.272 241.443,121.548 225.604 C 122.342 220.074,122.141 219.398,121.205 224.451 M219.281 227.967 C 227.788 237.333,236.130 250.614,239.829 260.679 C 240.514 262.545,241.085 263.839,241.097 263.555 C 241.342 257.550,227.292 234.583,218.535 226.678 C 216.274 224.637,216.304 224.689,219.281 227.967 M174.608 236.645 C 167.689 243.219,161.676 251.434,157.071 260.601 C 155.603 263.522,154.505 266.016,154.631 266.142 C 154.757 266.268,155.086 265.853,155.363 265.221 C 158.813 257.324,167.005 245.532,175.089 236.826 C 176.771 235.015,178.079 233.541,177.996 233.551 C 177.912 233.561,176.388 234.954,174.608 236.645 M153.358 268.879 C 152.689 270.347,152.817 270.661,153.540 269.326 C 153.878 268.703,154.080 268.118,153.988 268.027 C 153.897 267.936,153.613 268.319,153.358 268.879 M151.764 273.034 C 151.530 273.703,151.424 274.251,151.528 274.251 C 151.797 274.251,152.550 272.178,152.353 271.980 C 152.262 271.890,151.997 272.364,151.764 273.034 M250.106 305.389 C 250.764 307.712,253.530 309.426,256.487 309.343 C 257.533 309.314,257.458 309.247,255.886 308.813 C 253.378 308.120,252.546 307.613,251.091 305.891 C 249.997 304.597,249.862 304.528,250.106 305.389 M141.723 312.847 C 140.589 314.502,138.585 315.858,136.327 316.499 L 134.731 316.952 136.920 316.767 C 139.510 316.548,140.766 315.729,142.059 313.414 C 143.236 311.307,143.023 310.949,141.723 312.847 " stroke="none" fill="#f5c980" fill-rule="evenodd"></path><path id="path2" d="M145.457 68.585 C 139.844 70.888,139.082 72.204,139.431 78.994 C 139.994 89.965,146.827 100.960,157.477 108.031 C 160.145 109.803,160.141 109.638,157.576 111.475 C 145.568 120.074,143.200 134.907,152.318 144.405 C 154.946 147.141,155.087 147.111,158.611 143.053 C 161.835 139.341,161.890 139.203,162.488 133.410 C 162.908 129.332,162.349 129.712,166.891 130.418 L 170.708 131.011 173.877 128.736 C 175.620 127.485,178.438 125.627,180.138 124.608 C 182.334 123.292,183.301 122.465,183.472 121.756 C 184.493 117.525,184.325 117.790,185.733 118.194 C 189.975 119.410,195.300 118.160,198.384 115.225 C 199.602 114.065,201.100 112.790,201.713 112.390 C 202.326 111.990,203.024 111.285,203.264 110.822 C 203.504 110.359,203.562 110.110,203.392 110.268 C 203.222 110.426,201.674 109.563,199.952 108.349 C 190.619 101.772,178.578 99.390,169.988 102.421 C 167.948 103.140,166.336 102.718,163.275 100.662 C 156.439 96.071,153.465 86.148,155.485 74.671 C 156.459 69.133,151.483 66.113,145.457 68.585 M246.857 79.148 C 246.172 79.419,245.048 80.090,244.361 80.639 L 243.111 81.637 243.559 84.431 C 245.591 97.123,241.450 108.311,233.346 112.022 C 230.683 113.241,230.446 113.246,226.946 112.169 C 217.770 109.344,204.773 112.319,195.908 119.275 C 193.132 121.453,193.145 121.202,195.709 123.203 C 200.248 126.745,205.200 128.370,210.413 128.028 L 213.440 127.829 214.938 134.473 C 216.805 142.756,216.577 142.116,217.652 142.114 C 218.697 142.112,231.481 140.650,233.433 140.310 L 234.731 140.084 234.733 141.998 C 234.740 148.060,236.541 154.391,238.798 156.290 C 243.379 160.144,250.499 150.772,250.499 140.887 L 250.499 135.866 248.826 132.504 C 246.843 128.518,244.231 125.180,240.848 122.310 L 238.383 120.218 241.447 118.113 C 253.250 110.004,259.618 99.371,259.664 87.696 L 259.681 83.376 258.283 82.208 C 254.871 79.356,249.780 77.992,246.857 79.148 M142.391 85.429 C 144.341 91.221,148.620 98.801,151.292 101.198 C 151.781 101.637,152.551 102.535,153.002 103.194 C 154.781 105.792,150.441 101.194,147.896 97.784 C 143.977 92.534,141.166 86.212,140.740 81.688 C 140.634 80.562,140.645 80.000,140.764 80.439 C 140.883 80.878,141.615 83.124,142.391 85.429 M258.079 93.513 C 257.251 98.615,252.573 107.148,248.316 111.317 C 244.623 114.934,243.693 115.603,246.329 112.746 C 251.294 107.365,254.717 101.701,256.913 95.233 C 258.208 91.419,258.484 91.012,258.079 93.513 M157.685 113.670 C 157.136 114.029,155.647 115.367,154.377 116.642 C 153.107 117.918,152.240 118.647,152.451 118.263 C 153.172 116.946,157.768 112.925,158.472 112.995 C 158.588 113.007,158.234 113.310,157.685 113.670 M243.313 126.603 L 245.309 128.715 242.914 126.563 C 239.627 123.610,239.619 123.602,240.519 124.073 C 240.958 124.303,242.216 125.441,243.313 126.603 " stroke="none" fill="#468c3e" fill-rule="evenodd"></path><path id="path3" d="M188.626 44.720 C 168.616 46.194,139.923 55.565,121.314 66.704 C 102.649 77.876,88.989 90.383,73.672 110.322 C 47.747 144.072,39.510 191.398,51.312 238.794 C 52.278 242.675,53.522 248.352,54.076 251.408 C 57.791 271.915,78.878 301.431,103.160 320.114 C 112.003 326.917,125.483 334.400,139.702 340.398 C 173.120 354.495,207.473 358.232,232.136 350.452 C 251.200 344.439,253.271 343.712,263.872 339.318 C 286.534 329.925,311.804 309.453,327.188 288.024 C 342.026 267.354,351.279 244.244,351.879 226.357 C 352.007 222.519,352.323 217.669,352.581 215.578 C 355.340 193.182,351.355 163.266,342.662 141.118 C 333.758 118.435,323.563 104.475,301.342 84.542 C 271.116 57.428,227.120 41.884,188.626 44.720 M152.695 68.619 C 155.841 70.071,156.169 70.783,155.485 74.671 C 153.465 86.148,156.439 96.071,163.275 100.662 C 166.336 102.718,167.948 103.140,169.988 102.421 C 178.600 99.382,190.617 101.771,200.007 108.388 C 203.756 111.030,203.723 110.918,201.297 112.711 C 200.254 113.482,198.608 114.926,197.638 115.921 C 196.669 116.916,195.735 117.643,195.564 117.537 C 195.392 117.431,195.321 117.708,195.407 118.153 C 195.493 118.598,195.439 118.968,195.286 118.975 C 195.134 118.982,194.659 119.476,194.230 120.072 C 193.403 121.224,193.547 121.145,196.407 118.880 C 204.645 112.357,218.015 109.419,226.946 112.169 C 230.446 113.246,230.683 113.241,233.346 112.022 C 241.448 108.312,245.578 97.160,243.564 84.431 L 243.122 81.637 244.415 80.565 C 247.929 77.652,253.643 78.329,258.283 82.208 L 259.681 83.376 259.664 87.696 C 259.618 99.371,253.250 110.004,241.447 118.113 L 238.383 120.218 240.848 122.310 C 249.070 129.285,252.741 139.204,249.942 146.881 L 249.095 149.204 251.927 154.117 C 256.869 162.690,264.099 178.091,266.456 185.067 C 266.820 186.144,268.031 189.535,269.147 192.601 C 270.263 195.667,271.403 198.991,271.680 199.986 C 271.957 200.982,272.720 203.683,273.374 205.988 C 277.627 220.964,279.408 237.153,278.641 253.838 C 276.598 298.270,269.074 316.059,254.632 310.605 C 247.276 307.827,244.083 299.844,241.930 278.842 C 240.850 268.299,239.485 263.581,234.733 253.953 C 230.439 245.256,220.901 232.734,209.970 221.443 L 203.096 214.344 202.095 215.000 C 201.544 215.360,200.623 216.064,200.048 216.563 C 190.913 224.493,188.176 226.987,183.400 231.736 C 161.906 253.107,153.050 268.553,150.899 288.423 C 148.857 307.286,144.163 316.905,136.277 318.387 C 121.902 321.088,115.609 303.724,115.581 261.277 C 115.561 231.736,119.065 215.591,131.667 187.170 C 137.369 174.311,148.982 153.727,151.365 152.254 C 151.547 152.141,151.698 151.475,151.699 150.775 C 151.702 148.860,152.431 146.617,153.137 146.346 C 153.637 146.154,153.413 145.714,152.032 144.173 C 143.263 134.392,145.707 119.974,157.576 111.475 C 160.141 109.638,160.145 109.803,157.477 108.031 C 145.207 99.885,137.332 84.743,139.467 73.405 C 140.161 69.718,148.522 66.693,152.695 68.619 M205.190 109.788 C 205.647 109.802,205.606 109.944,205.014 110.392 C 203.979 111.174,203.704 111.134,203.162 110.121 C 202.743 109.337,202.784 109.286,203.647 109.517 C 204.166 109.656,204.860 109.778,205.190 109.788 " stroke="none" fill="#260604" fill-rule="evenodd"></path><path id="path4" d="M186.627 44.323 C 140.717 48.397,94.430 76.862,67.772 117.413 C 46.612 149.602,40.274 192.528,50.118 236.985 C 51.110 241.465,52.103 246.608,52.324 248.414 C 55.046 270.585,80.911 305.738,108.676 325.003 C 122.472 334.575,148.005 345.536,168.064 350.497 C 191.598 356.318,218.241 356.645,233.260 351.298 C 235.057 350.658,240.659 348.707,245.709 346.962 C 293.914 330.307,328.909 298.624,345.200 256.886 C 351.478 240.802,352.846 234.769,353.305 221.158 C 353.479 215.998,353.752 208.094,353.913 203.593 C 355.110 169.988,345.501 137.239,326.327 109.581 C 319.767 100.118,303.175 84.229,289.417 74.234 C 260.032 52.886,220.328 41.332,186.627 44.323 M214.168 45.317 C 253.985 49.974,292.474 71.149,321.549 104.391 C 334.474 119.169,346.558 146.175,350.844 169.860 C 353.075 182.189,353.928 204.642,352.581 215.578 C 352.323 217.669,352.007 222.519,351.879 226.357 C 351.279 244.244,342.026 267.354,327.188 288.024 C 315.569 304.209,299.310 319.208,282.036 329.677 C 267.230 338.650,259.974 341.671,232.136 350.452 C 194.115 362.445,131.097 345.474,95.297 313.600 C 79.410 299.455,65.519 281.039,58.016 264.175 C 55.434 258.373,55.200 257.616,54.076 251.408 C 53.522 248.352,52.278 242.675,51.312 238.794 C 39.510 191.398,47.747 144.072,73.672 110.322 C 99.892 76.189,127.901 57.962,169.860 47.729 C 183.448 44.415,199.153 43.560,214.168 45.317 M203.251 110.123 C 203.884 111.137,204.004 111.156,205.014 110.392 C 205.606 109.944,205.647 109.802,205.190 109.788 C 204.860 109.778,204.169 109.657,203.654 109.519 C 202.781 109.285,202.753 109.326,203.251 110.123 M194.012 117.984 C 191.883 118.594,187.532 118.709,185.767 118.203 C 184.526 117.847,184.508 117.863,184.030 119.700 C 183.765 120.721,183.472 121.826,183.379 122.156 C 183.286 122.485,181.823 123.588,180.128 124.608 C 178.433 125.627,175.620 127.485,173.877 128.736 L 170.708 131.011 166.891 130.418 C 162.282 129.702,162.659 129.354,162.747 134.238 L 162.819 138.265 159.136 142.486 C 157.111 144.807,154.744 147.689,153.876 148.890 L 152.299 151.073 152.045 149.888 C 151.817 148.825,151.786 148.876,151.744 150.376 C 151.718 151.296,151.547 152.141,151.365 152.254 C 150.796 152.605,145.149 161.253,142.213 166.267 C 132.865 182.239,123.242 205.876,119.218 222.754 C 117.271 230.921,114.809 247.358,116.168 243.114 C 116.411 242.354,116.502 242.687,116.550 244.511 C 116.611 246.838,117.227 250.776,117.319 249.429 C 117.708 243.748,119.967 229.621,121.777 221.557 C 123.104 215.641,123.256 216.045,122.168 222.605 C 121.113 228.972,119.756 239.517,119.779 241.175 C 119.794 242.234,120.205 241.493,121.735 237.646 C 124.262 231.294,127.842 223.460,130.273 218.962 C 131.341 216.986,132.450 214.920,132.738 214.371 C 133.629 212.670,134.930 209.264,134.930 208.632 C 134.930 208.302,135.073 207.943,135.248 207.835 C 135.423 207.726,135.400 208.993,135.196 210.649 C 134.897 213.078,134.932 213.728,135.377 214.010 C 136.207 214.536,136.524 214.445,136.558 213.673 C 136.576 213.288,136.673 213.177,136.775 213.425 C 137.017 214.014,145.479 211.908,146.467 211.014 C 146.853 210.665,147.469 210.379,147.836 210.379 C 148.203 210.379,148.869 210.013,149.316 209.566 C 149.763 209.119,150.282 208.848,150.468 208.963 C 150.655 209.078,151.028 208.907,151.297 208.583 C 151.567 208.258,151.934 208.084,152.113 208.195 C 152.293 208.305,152.553 208.214,152.691 207.991 C 152.828 207.767,153.121 207.585,153.341 207.585 C 153.560 207.585,153.601 207.809,153.432 208.084 C 153.263 208.358,153.862 207.999,154.763 207.285 C 155.665 206.572,156.601 205.988,156.844 205.988 C 157.087 205.988,157.300 205.674,157.317 205.289 C 157.338 204.832,157.421 204.772,157.558 205.115 C 157.703 205.476,158.120 205.245,158.896 204.376 C 159.517 203.681,160.210 203.227,160.437 203.367 C 160.880 203.641,162.475 202.256,162.475 201.597 C 162.475 201.377,162.672 201.198,162.914 201.198 C 163.989 201.198,166.034 199.849,166.438 198.872 C 166.682 198.283,167.417 197.442,168.071 197.004 C 168.724 196.566,169.260 195.983,169.260 195.709 C 169.261 195.434,169.531 195.210,169.860 195.210 C 170.190 195.210,170.459 195.038,170.459 194.829 C 170.459 194.619,170.863 194.013,171.357 193.481 C 172.329 192.436,174.089 190.301,175.034 189.022 C 175.358 188.583,176.482 187.111,177.532 185.752 C 178.582 184.392,180.160 182.248,181.038 180.986 C 181.916 179.724,183.313 177.728,184.143 176.551 C 184.972 175.374,185.528 174.212,185.379 173.970 C 185.229 173.728,185.286 173.641,185.507 173.777 C 185.853 173.991,186.864 172.573,191.855 164.870 C 192.353 164.102,192.997 162.937,193.286 162.281 C 193.576 161.625,194.127 160.772,194.511 160.385 C 195.322 159.568,195.479 158.273,194.711 158.738 C 194.436 158.904,194.767 158.479,195.447 157.795 C 196.939 156.291,198.969 152.289,198.568 151.640 C 198.399 151.367,198.452 151.281,198.697 151.432 C 199.113 151.689,200.399 150.094,200.399 149.321 C 200.399 149.097,200.965 147.995,201.656 146.871 C 202.347 145.748,202.931 144.308,202.954 143.673 C 202.997 142.443,203.494 142.117,203.805 143.114 C 203.908 143.443,204.087 144.009,204.202 144.372 C 204.418 145.049,205.362 143.779,207.696 139.674 C 208.243 138.712,209.200 137.029,209.821 135.935 L 210.951 133.945 211.397 137.532 C 212.171 143.747,213.425 145.660,217.051 146.152 C 220.014 146.554,220.342 146.978,221.205 151.540 C 222.375 157.719,224.426 160.876,226.871 160.263 C 229.403 159.627,233.052 153.935,234.026 149.102 C 234.292 147.784,234.626 146.617,234.769 146.507 C 234.912 146.397,234.938 144.906,234.826 143.194 C 234.623 140.088,234.620 140.080,233.579 140.286 C 233.005 140.399,229.301 140.867,225.349 141.325 C 221.397 141.783,217.855 142.248,217.478 142.359 C 217.001 142.499,216.731 142.280,216.588 141.639 C 216.476 141.133,215.946 138.832,215.411 136.527 C 214.876 134.222,214.213 131.347,213.938 130.140 L 213.438 127.944 209.014 127.927 C 203.036 127.905,199.487 126.563,194.857 122.574 C 193.413 121.330,193.417 121.237,195.013 118.862 C 195.567 118.039,195.972 117.389,195.914 117.417 C 195.856 117.446,195.000 117.701,194.012 117.984 M192.216 125.330 C 191.776 125.509,189.800 126.234,187.824 126.942 C 174.895 131.572,162.046 142.917,153.674 157.097 C 149.961 163.384,150.032 162.516,153.804 155.489 C 161.593 140.981,173.088 130.564,185.701 126.586 C 190.530 125.062,194.969 124.207,192.216 125.330 M247.511 151.639 C 246.746 152.878,246.162 154.027,246.214 154.192 C 246.265 154.356,246.173 154.451,246.008 154.402 C 245.843 154.353,245.170 154.848,244.511 155.503 L 243.313 156.692 244.212 157.573 C 245.878 159.209,245.258 168.768,243.039 175.649 C 241.261 181.163,236.653 188.718,233.212 191.763 C 232.549 192.349,232.473 192.615,232.852 193.016 C 233.117 193.295,233.673 193.993,234.088 194.567 C 234.850 195.619,235.792 196.033,235.322 195.110 C 235.183 194.835,235.426 195.015,235.862 195.509 C 236.298 196.003,236.851 196.407,237.090 196.407 C 237.329 196.407,237.539 196.722,237.556 197.106 C 237.575 197.526,237.668 197.605,237.790 197.304 C 237.987 196.815,238.570 197.237,241.437 199.940 C 242.078 200.545,242.344 200.651,242.186 200.239 C 241.918 199.541,242.514 199.352,242.918 200.007 C 243.056 200.230,243.336 200.309,243.541 200.183 C 243.745 200.056,243.912 200.143,243.912 200.376 C 243.912 200.608,244.154 200.798,244.450 200.798 C 244.746 200.798,245.402 201.158,245.908 201.597 C 246.414 202.036,247.154 202.395,247.551 202.395 C 247.947 202.395,248.594 202.733,248.986 203.147 C 249.654 203.849,255.912 206.034,257.685 206.183 C 258.124 206.220,258.809 206.395,259.208 206.571 C 260.468 207.129,260.842 206.274,260.368 203.915 C 259.760 200.881,260.411 200.706,261.238 203.681 C 261.621 205.060,262.326 206.816,262.804 207.585 C 264.852 210.880,270.459 223.796,272.940 230.938 C 273.703 233.134,274.420 235.020,274.534 235.130 C 274.969 235.551,273.554 220.173,272.496 212.981 C 271.864 208.685,271.926 207.379,272.598 210.847 C 274.947 222.974,276.557 235.209,276.686 241.916 L 276.729 244.112 277.269 241.717 C 277.566 240.399,277.820 238.513,277.833 237.525 C 277.851 236.173,277.957 235.877,278.264 236.327 C 278.566 236.770,278.621 236.562,278.476 235.529 C 278.369 234.760,278.171 232.784,278.036 231.138 C 277.392 223.226,275.742 214.326,273.374 205.988 C 272.720 203.683,271.957 200.982,271.680 199.986 C 271.403 198.991,270.263 195.667,269.147 192.601 C 268.031 189.535,266.820 186.144,266.456 185.067 C 263.634 176.716,250.918 150.600,249.157 149.539 C 249.017 149.455,248.276 150.400,247.511 151.639 M201.758 214.843 L 200.998 215.713 201.988 215.040 L 202.978 214.367 208.176 219.459 L 213.373 224.551 208.189 219.261 C 202.434 213.389,202.805 213.644,201.758 214.843 M197.769 218.263 C 196.442 219.526,195.997 220.007,196.780 219.333 C 197.563 218.659,198.801 217.626,199.532 217.037 C 200.262 216.449,200.707 215.968,200.521 215.968 C 200.335 215.968,199.097 217.001,197.769 218.263 M193.307 221.968 C 192.590 222.620,192.152 223.154,192.334 223.154 C 192.516 223.154,193.181 222.615,193.812 221.956 C 195.280 220.425,194.996 220.431,193.307 221.968 M189.599 225.449 L 188.224 226.946 189.721 225.570 C 191.114 224.290,191.401 223.952,191.096 223.952 C 191.030 223.952,190.356 224.626,189.599 225.449 M214.970 226.747 C 216.051 227.844,217.026 228.743,217.136 228.743 C 217.245 228.743,216.451 227.844,215.369 226.747 C 214.288 225.649,213.313 224.750,213.204 224.750 C 213.094 224.750,213.889 225.649,214.970 226.747 M183.012 231.648 L 180.240 234.531 183.023 231.936 C 184.555 230.509,185.887 229.296,185.984 229.242 C 186.081 229.187,186.076 229.057,185.973 228.953 C 185.869 228.850,184.537 230.062,183.012 231.648 M176.622 238.423 L 175.449 239.721 176.747 238.548 C 177.956 237.455,178.227 237.126,177.919 237.126 C 177.850 237.126,177.266 237.710,176.622 238.423 M278.777 245.908 C 278.777 247.555,278.847 248.229,278.934 247.405 C 279.020 246.582,279.020 245.235,278.934 244.411 C 278.847 243.588,278.777 244.261,278.777 245.908 M115.483 248.104 C 115.486 249.202,115.564 249.603,115.656 248.997 C 115.747 248.390,115.745 247.491,115.650 247.000 C 115.556 246.510,115.480 247.006,115.483 248.104 M277.538 269.062 C 277.538 269.830,277.620 270.145,277.720 269.760 C 277.821 269.376,277.821 268.748,277.720 268.363 C 277.620 267.979,277.538 268.293,277.538 269.062 M115.493 272.455 C 115.495 273.772,115.570 274.263,115.659 273.546 C 115.747 272.828,115.746 271.750,115.655 271.151 C 115.563 270.551,115.491 271.138,115.493 272.455 M277.155 273.852 C 277.155 274.840,277.232 275.245,277.328 274.750 C 277.423 274.256,277.423 273.448,277.328 272.954 C 277.232 272.460,277.155 272.864,277.155 273.852 M115.869 279.641 C 115.874 280.519,115.955 280.831,116.051 280.335 C 116.146 279.838,116.143 279.120,116.043 278.738 C 115.943 278.356,115.865 278.762,115.869 279.641 M249.900 307.585 C 250.645 308.353,251.344 308.982,251.454 308.982 C 251.564 308.982,251.044 308.353,250.299 307.585 C 249.555 306.816,248.855 306.188,248.746 306.188 C 248.636 306.188,249.155 306.816,249.900 307.585 M266.442 308.283 L 265.269 309.581 266.567 308.408 C 267.280 307.763,267.864 307.180,267.864 307.111 C 267.864 306.803,267.535 307.074,266.442 308.283 " stroke="none" fill="#871817" fill-rule="evenodd">
</path>
</g>
</svg>