<?xml version="1.0" standalone="no"?>
<!DOCTYPE svg PUBLIC "-//W3C//DTD SVG 20010904//EN"
 "http://www.w3.org/TR/2001/REC-SVG-20010904/DTD/svg10.dtd">
<svg version="1.0" xmlns="http://www.w3.org/2000/svg"
 width="510.000000pt" height="680.000000pt" viewBox="0 0 510.000000 680.000000"
 preserveAspectRatio="xMidYMid meet">

<g transform="translate(0.000000,680.000000) scale(0.100000,-0.100000)"
fill="#000000" stroke="none">
<path d="M2375 5634 c-309 -46 -510 -107 -730 -221 -111 -57 -275 -159 -322
-199 -12 -10 -33 -27 -47 -37 -104 -77 -338 -324 -404 -427 -9 -14 -28 -41
-43 -60 -24 -33 -38 -56 -110 -185 -72 -130 -148 -332 -187 -495 -35 -144 -40
-179 -53 -358 -16 -230 0 -453 48 -655 l16 -69 1956 7 c1773 5 2178 9 2188 19
2 2 12 57 23 122 11 65 25 139 29 164 5 25 10 106 10 180 4 452 -95 824 -318
1195 -21 35 -122 179 -149 211 -351 431 -776 685 -1312 785 -91 17 -163 22
-340 24 -124 2 -238 1 -255 -1z m525 -207 c244 -44 434 -108 630 -214 652
-352 1063 -1079 1026 -1817 -7 -136 -21 -250 -37 -303 l-11 -33 -456 0 c-251
0 -462 4 -468 8 -30 20 -85 121 -113 209 -95 289 -348 669 -619 928 -322 308
-644 517 -1022 663 -118 45 -168 57 -205 48 -30 -8 -59 -59 -49 -88 4 -12 48
-65 99 -119 186 -194 255 -335 305 -619 35 -195 -29 -490 -163 -757 -69 -136
-145 -261 -167 -273 -30 -16 -925 -14 -938 3 -25 31 -57 359 -48 497 16 247
63 484 127 638 5 12 13 32 18 45 105 260 293 524 511 715 284 248 615 406 980
467 19 3 58 10 85 15 75 13 417 4 515 -13z m-737 -1988 c-19 -6 -39 -21 -47
-37 -9 -15 -15 -21 -16 -14 0 21 47 62 72 61 18 -1 16 -3 -9 -10z m108 1 c22
-13 52 -67 44 -80 -12 -20 -64 -11 -75 13 -10 20 -10 20 3 5 13 -16 67 -26 67
-13 0 25 -35 66 -63 74 -17 5 -24 10 -14 10 10 1 27 -4 38 -9z m173 2 c2 -4
-13 -8 -35 -7 -21 0 -39 3 -39 8 0 10 67 9 74 -1z m160 0 c3 -5 -9 -6 -26 -4
-19 3 -33 -1 -39 -9 -7 -11 -9 -10 -9 4 0 13 8 17 34 17 19 0 37 -4 40 -8z
m231 2 c25 -10 47 -62 40 -94 -4 -16 -20 -41 -36 -54 -29 -25 -29 -26 -14 -56
26 -51 35 -80 25 -80 -6 0 -10 8 -10 18 0 9 -11 36 -25 60 l-24 43 22 8 c53
20 70 81 37 124 -22 28 -24 28 -115 25 -51 -2 -91 0 -88 5 5 9 165 10 188 1z
m164 -11 c0 -11 -3 -13 -6 -5 -6 15 -63 16 -63 0 0 -6 -3 -9 -6 -5 -13 13 9
27 42 27 26 0 34 -4 33 -17z m121 10 c-25 -3 -50 -19 -88 -55 -29 -28 -56 -48
-59 -45 -8 8 6 27 21 27 6 0 30 18 51 40 32 33 45 40 75 38 l35 -1 -35 -4z
m-753 -45 c-3 -8 -6 -5 -6 6 -1 11 2 17 5 13 3 -3 4 -12 1 -19z m70 0 c-3 -8
-6 -5 -6 6 -1 11 2 17 5 13 3 -3 4 -12 1 -19z m670 -22 l-49 -44 39 -68 c44
-78 56 -104 45 -103 -4 0 -27 39 -51 87 l-43 86 48 43 c27 23 51 42 54 42 3 0
-17 -19 -43 -43z m-580 12 c-3 -8 -6 -5 -6 6 -1 11 2 17 5 13 3 -3 4 -12 1
-19z m70 0 c-3 -8 -6 -5 -6 6 -1 11 2 17 5 13 3 -3 4 -12 1 -19z m390 0 c-3
-8 -6 -5 -6 6 -1 11 2 17 5 13 3 -3 4 -12 1 -19z m-786 3 c-42 -12 -34 -29 27
-60 60 -31 72 -44 72 -86 0 -23 -44 -85 -60 -85 -5 0 5 13 21 29 33 34 39 79
12 103 -10 9 -37 25 -60 37 -23 11 -45 25 -48 31 -10 16 14 40 39 39 19 -1 19
-2 -3 -8z m509 -20 c-16 -31 -12 -39 23 -44 31 -4 31 -4 -5 -5 -25 -1 -38 2
-38 11 0 24 13 57 22 57 5 0 4 -8 -2 -19z m97 3 c3 -8 1 -20 -5 -26 -8 -8 -9
-5 -6 10 4 14 0 22 -13 25 -17 4 -17 5 0 6 10 0 20 -6 24 -15z m-458 -73 c-6
-34 -14 -60 -16 -57 -2 2 1 32 8 65 6 34 14 60 16 57 2 -2 -1 -32 -8 -65z m85
54 c3 -8 1 -15 -4 -15 -6 0 -10 7 -10 15 0 8 2 15 4 15 2 0 6 -7 10 -15z m153
-17 c-3 -7 -5 -2 -5 12 0 14 2 19 5 13 2 -7 2 -19 0 -25z m-67 12 c0 -5 -5
-10 -11 -10 -5 0 -7 5 -4 10 3 6 8 10 11 10 2 0 4 -4 4 -10z m387 -22 c-3 -7
-5 -2 -5 12 0 14 2 19 5 13 2 -7 2 -19 0 -25z m-750 -37 c21 -11 33 -20 27
-21 -21 0 -79 46 -81 65 -3 17 -2 17 7 -2 5 -12 26 -31 47 -42z m470 17 c-3
-8 -6 -5 -6 6 -1 11 2 17 5 13 3 -3 4 -12 1 -19z m-50 -20 c-3 -7 -5 -2 -5 12
0 14 2 19 5 13 2 -7 2 -19 0 -25z m320 0 c-3 -8 -6 -5 -6 6 -1 11 2 17 5 13 3
-3 4 -12 1 -19z m-470 -10 c-9 -7 -21 -31 -27 -53 l-10 -40 6 44 c6 53 10 61
32 61 14 0 14 -1 -1 -12z m73 3 c0 -4 -11 -6 -25 -3 -14 2 -25 6 -25 8 0 2 11
4 25 4 14 0 25 -4 25 -9z m513 -5 c4 -10 1 -13 -9 -9 -22 8 -44 -16 -50 -59
-4 -21 -10 -41 -14 -43 -17 -10 12 81 32 103 25 26 34 27 41 8z m-396 -18 c-3
-8 -6 -5 -6 6 -1 11 2 17 5 13 3 -3 4 -12 1 -19z m103 18 c0 -2 -9 -6 -20 -9
-11 -3 -20 -1 -20 4 0 5 9 9 20 9 11 0 20 -2 20 -4z m-492 -34 c4 -23 -30 -38
-65 -29 -10 3 -5 5 14 6 38 1 50 16 31 38 -11 14 -11 16 2 11 8 -2 16 -14 18
-26z m339 -4 c-3 -7 -5 -2 -5 12 0 14 2 19 5 13 2 -7 2 -19 0 -25z m-492 11
c-11 -16 15 -68 37 -75 11 -3 18 -8 15 -10 -10 -10 -39 10 -52 37 -18 33 -19
59 -4 59 5 0 7 -5 4 -11z m65 -4 c0 -8 -2 -15 -4 -15 -2 0 -6 7 -10 15 -3 8
-1 15 4 15 6 0 10 -7 10 -15z m747 -7 c-3 -8 -6 -5 -6 6 -1 11 2 17 5 13 3 -3
4 -12 1 -19z m-212 -37 c-4 -23 -10 -41 -14 -41 -4 0 -3 20 3 45 13 54 21 51
11 -4z m-348 -3 c-3 -7 -5 -2 -5 12 0 14 2 19 5 13 2 -7 2 -19 0 -25z m443 -3
c0 -5 -5 -3 -10 5 -5 8 -10 20 -10 25 0 6 5 3 10 -5 5 -8 10 -19 10 -25z
m-213 3 c-3 -8 -6 -5 -6 6 -1 11 2 17 5 13 3 -3 4 -12 1 -19z m-70 -25 c-3
-10 -5 -4 -5 12 0 17 2 24 5 18 2 -7 2 -21 0 -30z m390 0 c-3 -10 -5 -4 -5 12
0 17 2 24 5 18 2 -7 2 -21 0 -30z m187 12 c9 -14 13 -25 8 -25 -5 0 -14 11
-20 25 -6 14 -10 25 -8 25 2 0 11 -11 20 -25z m-739 -15 c3 -5 1 -10 -4 -10
-6 0 -11 5 -11 10 0 6 2 10 4 10 3 0 8 -4 11 -10z m55 -10 c-8 -6 -22 -10 -30
-10 -8 0 -4 6 10 13 27 15 44 12 20 -3z m225 10 c3 -5 1 -10 -4 -10 -6 0 -11
5 -11 10 0 6 2 10 4 10 3 0 8 -4 11 -10z m-402 -17 c-13 -2 -33 -2 -45 0 -13
2 -3 4 22 4 25 0 35 -2 23 -4z"/>
<path d="M3418 2875 c-3 -3 -647 -5 -1431 -5 -785 0 -1427 -4 -1427 -8 0 -12
26 -81 32 -88 7 -6 135 -6 2363 2 902 3 1650 7 1662 10 20 4 43 47 43 80 0 12
-106 14 -618 14 -340 0 -621 -2 -624 -5z"/>
<path d="M620 2685 c0 -5 13 -35 28 -65 l27 -55 300 0 c165 1 932 6 1705 13
773 6 1512 12 1642 12 l237 0 16 30 c8 16 20 41 25 55 l9 24 -1994 -2 c-1322
-1 -1995 -5 -1995 -12z"/>
<path d="M2355 2490 c-953 -7 -1615 -17 -1623 -25 -5 -5 38 -85 46 -86 60 -5
215 -7 877 -8 429 -1 1236 2 1793 5 l1012 7 29 51 c16 28 27 54 25 58 -6 9
-594 8 -2159 -2z"/>
<path d="M1875 2250 c-555 -3 -1009 -9 -1009 -13 1 -5 24 -38 50 -74 l49 -64
1650 7 c1495 6 1652 8 1668 23 23 20 91 111 86 115 -9 8 -1558 12 -2494 6z"/>
<path d="M2600 1949 c-536 -3 -1090 -7 -1230 -8 l-255 -2 79 -74 79 -75 291
-1 c160 0 761 0 1336 1 900 0 1048 3 1067 15 34 23 153 136 153 146 0 5 -120
8 -272 7 -150 -1 -712 -5 -1248 -9z"/>
<path d="M1726 1580 l-129 -5 109 -52 c104 -50 248 -105 324 -123 211 -51 273
-62 400 -72 239 -18 411 -7 619 37 198 42 316 83 491 168 l85 42 -375 6 c-451
7 -1344 7 -1524 -1z"/>
</g>
</svg>
