<?xml version="1.0" encoding="UTF-8" standalone="no"?>
<svg
   xmlns:dc="http://purl.org/dc/elements/1.1/"
   xmlns:cc="http://creativecommons.org/ns#"
   xmlns:rdf="http://www.w3.org/1999/02/22-rdf-syntax-ns#"
   xmlns:svg="http://www.w3.org/2000/svg"
   xmlns="http://www.w3.org/2000/svg"
   xmlns:xlink="http://www.w3.org/1999/xlink"
   xmlns:sodipodi="http://sodipodi.sourceforge.net/DTD/sodipodi-0.dtd"
   xmlns:inkscape="http://www.inkscape.org/namespaces/inkscape"
   version="1.1"
   width="64"
   height="60.356506"
   viewBox="0 0 64.000001 60.356508"
   id="svg29"
   sodipodi:docname="SHRK.svg"
   inkscape:version="1.0.1 (c497b03c, 2020-09-10)">
  <metadata
     id="metadata35">
    <rdf:RDF>
      <cc:Work
         rdf:about="">
        <dc:format>image/svg+xml</dc:format>
        <dc:type
           rdf:resource="http://purl.org/dc/dcmitype/StillImage" />
      </cc:Work>
    </rdf:RDF>
  </metadata>
  <defs
     id="defs33">
    <linearGradient
       inkscape:collect="always"
       xlink:href="#SvgjsLinearGradient1395"
       id="linearGradient37"
       gradientTransform="scale(0.86220841,1.1598124)"
       x1="15.975256"
       y1="0.86220843"
       x2="100.28627"
       y2="0.86220843"
       gradientUnits="userSpaceOnUse" />
    <linearGradient
       inkscape:collect="always"
       xlink:href="#SvgjsLinearGradient1395"
       id="linearGradient39"
       gradientTransform="scale(0.8617928,1.1603717)"
       x1="69.886871"
       y1="53.261379"
       x2="78.017021"
       y2="53.261379"
       gradientUnits="userSpaceOnUse" />
    <linearGradient
       inkscape:collect="always"
       xlink:href="#SvgjsLinearGradient1395"
       id="linearGradient41"
       gradientTransform="scale(0.86220841,1.1598124)"
       x1="15.975256"
       y1="0.86220843"
       x2="100.28627"
       y2="0.86220843"
       gradientUnits="userSpaceOnUse" />
    <linearGradient
       inkscape:collect="always"
       xlink:href="#SvgjsLinearGradient1398"
       id="linearGradient43"
       gradientTransform="scale(2.4172166,0.41369897)"
       x1="0.69064426"
       y1="15.591219"
       x2="39.082451"
       y2="15.591219"
       gradientUnits="userSpaceOnUse" />
    <linearGradient
       inkscape:collect="always"
       xlink:href="#SvgjsLinearGradient1398"
       id="linearGradient45"
       gradientTransform="scale(2.4172166,0.41369897)"
       x1="0.69064426"
       y1="15.591219"
       x2="39.082451"
       y2="15.591219"
       gradientUnits="userSpaceOnUse" />
  </defs>
  <sodipodi:namedview
     pagecolor="#ffffff"
     bordercolor="#666666"
     borderopacity="1"
     objecttolerance="10"
     gridtolerance="10"
     guidetolerance="10"
     inkscape:pageopacity="0"
     inkscape:pageshadow="2"
     inkscape:window-width="1236"
     inkscape:window-height="840"
     id="namedview31"
     showgrid="false"
     inkscape:zoom="3.9934028"
     inkscape:cx="89.181081"
     inkscape:cy="52.542381"
     inkscape:window-x="0"
     inkscape:window-y="23"
     inkscape:window-maximized="0"
     inkscape:current-layer="svg29" />
  <rect
     fill="#262833"
     width="64"
     height="60.356506"
     id="rect10"
     x="0"
     y="0"
     style="stroke-width:0.0199111" />
  <g
     transform="matrix(0.21333334,0,0,0.21333334,2.1333777,2.1333189)"
     id="g27">
    <defs
       id="SvgjsDefs1390">
      <linearGradient
         id="SvgjsLinearGradient1395">
        <stop
           id="SvgjsStop1396"
           stop-color="#00ddff"
           offset="0" />
        <stop
           id="SvgjsStop1397"
           stop-color="#ff00d4"
           offset="1" />
      </linearGradient>
      <linearGradient
         id="SvgjsLinearGradient1398">
        <stop
           id="SvgjsStop1399"
           stop-color="#2d388a"
           offset="0" />
        <stop
           id="SvgjsStop1400"
           stop-color="#00aeef"
           offset="1" />
      </linearGradient>
    </defs>
    <g
       id="SvgjsG1391"
       featureKey="mugSzh-0"
       transform="matrix(1.9946718,0,0,1.9946718,40.52541,-1.9946718)"
       fill="url(#SvgjsLinearGradient1395)"
       style="fill:url(#linearGradient41)">
      <path
         fill-rule="evenodd"
         clip-rule="evenodd"
         d="m 42.907,29.392 c 0.293,0.537 -0.19,0.955 0.121,1.494 1.173,-2.141 1.445,-4.529 2.424,-6.698 0.137,1.184 -0.03,2.398 0.385,3.659 2.606,-1.977 5.463,-3.48 8.146,-5.257 1.09,-0.721 1.699,-1.899 2.287,-3.038 2.071,-4.013 3.613,-8.264 5.537,-12.344 1.039,-2.204 2.15,-4.36 3.839,-6.208 -0.663,1.919 -1.345,3.832 -1.985,5.758 -1.185,3.559 -2.266,7.143 -2.862,10.861 -0.407,2.539 -0.13,5.014 0.46,7.479 0.069,0.29 0.16,0.574 0.283,1.005 -1.623,-0.346 -3.122,-0.575 -4.561,-1.007 -0.781,-0.234 -1.375,-0.079 -2.01,0.268 -5.092,2.78 -8.634,7.001 -11.282,12.075 -2.765,5.298 -3.261,10.772 -1.427,16.46 0.252,0.781 0.232,1.591 0.096,2.374 -0.211,1.214 -0.67,1.402 -2.723,1.266 -0.06,0.458 0.295,0.697 0.537,0.971 0.584,0.658 1.195,1.417 2.188,1.209 0.985,-0.206 1.115,-1.183 1.325,-1.972 0.794,-2.992 0.901,-6.061 0.914,-9.134 0.005,-1.267 0.001,-2.534 0.143,-3.855 1.241,1.159 2.015,2.6 2.687,4.094 2.082,4.635 3.375,9.53 4.555,14.445 0.571,2.381 2.051,3.992 3.743,5.604 0.146,-0.468 -0.266,-0.613 -0.401,-0.885 -0.159,-0.319 -0.414,-0.592 -0.569,-0.914 -0.295,-0.612 -0.672,-1.319 -0.164,-1.908 0.545,-0.631 1.289,-0.247 1.878,0.049 2.398,1.204 4.603,2.731 6.756,4.318 8.988,6.625 16.445,14.674 22.259,24.212 1.508,2.474 1.314,1.845 -0.828,3.065 -3.646,2.079 -7.603,2.238 -11.639,1.651 -3.001,-0.437 -5.977,-1.007 -8.901,-1.833 -1.052,-0.297 -2.019,-0.644 -2.833,-1.432 -0.56,-0.543 -1.286,-0.91 -2.369,-1.037 0.905,0.656 1.86,0.794 2.43,1.558 -5.948,1.112 -21.983,-6.289 -25.493,-11.786 0.987,-0.043 1.911,-0.216 2.824,-0.449 0.915,-0.233 1.818,-0.051 2.749,0.048 -1.025,-0.895 -2.224,-1.368 -3.584,-1.268 -6.025,0.445 -12.051,0.735 -18.068,-0.072 -1.999,-0.269 -3.945,-0.768 -6,-1.74 4.426,-1.377 8.53,-2.882 12.477,-4.79 1.853,-0.896 3.626,-1.886 4.698,-3.742 0.919,0.466 1.449,1.305 2.298,1.784 -1.18,-1.856 -2.99,-3.247 -3.931,-5.318 -0.24,1.279 0.229,2.601 -0.353,3.844 -2.013,-2.18 -2.73,-11.485 -1.188,-19.293 1.931,-9.786 6.815,-17.777 15.132,-23.571 z m -4.114,26.77 c -3.339,-6.651 -2.363,-13.1 0.732,-19.481 -0.188,0.06 -0.287,0.121 -0.34,0.209 -2.416,4.049 -3.813,8.397 -3.214,13.132 0.285,2.243 0.705,4.602 2.822,6.14 z m 29.901,37.493 c 4.174,3.498 13.055,4.806 16.021,2.334 -5.585,0.734 -10.751,-0.212 -16.021,-2.334 z m -4.02,-2.352 c -2.171,-1.574 -3.744,-4.299 -6.952,-3.583 0.251,0.524 1.171,0.2 1.399,0.819 1.001,2.707 3.348,2.601 5.553,2.764 z M 47.176,85.149 c -0.761,-1.949 -0.269,-3.726 0.887,-5.644 -1.767,1.492 -2.085,3.82 -0.887,5.644 z M 42.357,76.79 c -1.391,1.327 -1.669,3.243 -0.699,4.805 -0.486,-1.703 -0.052,-3.258 0.699,-4.805 z m 1.738,6.479 c -0.706,-1.756 0.111,-3.261 0.808,-4.985 -1.5,1.482 -1.802,3.426 -0.808,4.985 z"
         id="path19"
         style="fill:url(#linearGradient37)" />
      <path
         fill-rule="evenodd"
         clip-rule="evenodd"
         d="m 66.761,61.803 c 0.724,1.915 0.603,6.253 -0.262,9.434 -2.078,-1.471 -4.098,-2.9 -6.271,-4.439 3.004,-0.681 5.112,-2.274 6.533,-4.995 z"
         id="path21"
         style="fill:url(#linearGradient39)" />
    </g>
    <g
       id="SvgjsG1392"
       featureKey="PPkF4s-0"
       transform="matrix(3.0171989,0,0,3.0171989,-5.0370189,195.53885)"
       fill="url(#SvgjsLinearGradient1398)"
       style="fill:url(#linearGradient45)">
      <path
         d="m 10.8,8.671 h 6.8066 v 2.3477 H 10.8 l 1.37e-4,2.2034 3.1108,0.01217 c 1.4829,0 3.6958,0.9158 3.6958,3.4388 0,2.523 -2.0566,3.4388 -3.4388,3.4388 h -3.3672 l 1.36e-4,2.2206 -2.3245996,2.54e-4 -1.367e-4,-2.2208 h -6.8067 v -2.3477 h 6.8066 L 8.4759,15.557822 5.3697,15.543955 v 0.0046 c -1.4873,0 -3.7002,-0.9158 -3.7002,-3.4388 0,-2.5229998 2.0566,-3.4387998 3.4388,-3.4387998 h 3.3673 l -1.367e-4,-2.2206 2.3245997,-2.539e-4 z m -5.4224,4.5298 3.098,0.01221 -1.367e-4,-2.1944 h -3.357 c -0.10229,0.0035 -0.4082,0.04211 -0.66038,0.18152 -0.21828,0.12059 -0.44128,0.3229 -0.44128,0.90952 0,0.45738 0.14793,0.70718 0.52736,0.89108 0.38386,0.18598 0.81196,0.19957 0.83354,0.2001 z m 8.5194,2.3812 -3.097,-0.01375 1.37e-4,2.1962 h 3.357 c 0.1024,-0.0035 0.40818,-0.04211 0.66022,-0.18152 0.21828,-0.12072 0.44128,-0.32304 0.44128,-0.90964 0,-0.45724 -0.14779,-0.70718 -0.52734,-0.89108 -0.3827,-0.18547 -0.81038,-0.19947 -0.8343,-0.20012 z m 9.841,-4.5774 c -0.21816,0.12059 -0.44118,0.32306 -0.44118,0.90966 0,0.45724 0.14779,0.70718 0.52734,0.89108 0.38386,0.18598 0.81196,0.19957 0.83354,0.2001 l 8.5334,0.03336 c 1.4828,0 3.6956,0.9158 3.6956,3.4388 0,2.523 -2.0564,3.4388 -3.4388,3.4388 h -12.499 v -2.3477 h 12.488 c 0.1024,-0.0035 0.40818,-0.04211 0.66022,-0.18152 0.21828,-0.12072 0.44128,-0.32318 0.44128,-0.90964 0,-0.45724 -0.14779,-0.70718 -0.52734,-0.89108 -0.3827,-0.18547 -0.81038,-0.19947 -0.8343,-0.20012 l -8.5278,-0.03793 v 0.0046 c -1.4875,0 -3.7004,-0.9158 -3.7004,-3.4388 0,-2.5229997 2.0564,-3.4387997 3.4388,-3.4387997 h 12.499 V 10.82308 h -12.488 c -0.10229,0.0035 -0.40834,0.04211 -0.6605,0.18152 z M 53.819,8.617 h 2.3476 V 20.024 H 53.819 V 15.4941 H 42.577 V 20.024 H 40.2293 V 8.617 h 2.3477 v 4.5299 h 11.242 z m 20.018,8.94 1.162,-0.01742 0.03479,2.3242 -1.1621,0.0174 c -0.18088,0.0028 -0.38542,0.0059 -0.6087,0.0059 -1.614,0 -4.2026,-0.16008 -5.8378,-1.7712 -0.72798,-0.71726 -1.1865,-1.629 -1.3698,-2.72 h -4.2054 l -0.0166,4.4896 -2.3246,-0.0086 0.0374,-10.1270004 v -1.1635 h 0.0043 v -0.00432 l 1.1612,0.00432 h 10.951 c 1.4728,0 3.6638,0.90678 3.6638,3.4048004 0,2.4982 -2.0362,3.405 -3.4048,3.405 h -3.4826 c 0.12543,0.4252 0.32842,0.77924 0.61734,1.064 1.1685,1.151 3.608,1.1146 4.7804,1.0969 z m -11.9656,-4.4856 10.041,-2e-5 c 0.10148,-0.0035 0.40426,-0.04172 0.6538,-0.17971 0.21608,-0.11955 0.43686,-0.32006 0.43686,-0.90076 0,-0.46692 -0.15799,-0.71972 -0.56382,-0.90166 -0.36882,-0.16531 -0.77152,-0.17865 -0.77532,-0.17865 h -9.7922 v 2.1608 z m 32.5646,4.5476 0.03475,2.3244 -1.1621,0.0174 c -0.18049,0.0028 -0.38464,0.0059 -0.60738,0.0059 -1.6091,0 -4.1898,-0.15982 -5.8222,-1.768 -0.77534,-0.7638 -1.2442,-1.7492 -1.4014,-2.9364 -0.85432,0.12438 -1.7942,0.19199 -2.8226,0.19199 h -1.641 v 4.4852 h -2.3246 V 8.6444904 h 2.3246 V 13.12979 h 1.641 c 4.7582,0 7.2478,-1.6252 7.2478,-3.2307996 v -1.1623 h 2.3246 v 1.1622 c 0,1.9108996 -1.4137,3.8333996 -4.469,4.8391996 0.06213,0.77546 0.30946,1.3688 0.75204,1.8049 1.1652,1.1478 3.5954,1.1114 4.7634,1.0939 z"
         id="path24"
         style="fill:url(#linearGradient43)" />
    </g>
  </g>
</svg>
