<?xml version="1.0" standalone="no"?>
<!DOCTYPE svg PUBLIC "-//W3C//DTD SVG 20010904//EN"
 "http://www.w3.org/TR/2001/REC-SVG-20010904/DTD/svg10.dtd">
<svg version="1.0" xmlns="http://www.w3.org/2000/svg"
 width="400.000000pt" height="400.000000pt" viewBox="0 0 400.000000 400.000000"
 preserveAspectRatio="xMidYMid meet">

<g transform="translate(0.000000,400.000000) scale(0.100000,-0.100000)"
fill="#000000" stroke="none">
<path d="M2599 3362 c-7 -15 -21 -38 -31 -51 -22 -29 -23 -41 -3 -41 8 0 15 7
15 15 0 9 9 34 21 56 11 23 19 43 16 45 -2 2 -10 -8 -18 -24z"/>
<path d="M2524 3258 c-3 -4 6 -8 20 -8 34 0 33 -14 -5 -90 -17 -34 -28 -64
-25 -67 2 -3 13 12 24 34 11 21 31 59 45 85 l25 46 -40 4 c-22 2 -42 0 -44 -4z"/>
<path d="M2932 3144 c-12 -8 -20 -19 -17 -24 5 -9 -57 -60 -74 -60 -23 0 -20
-21 5 -30 l27 -11 -34 -36 -34 -36 32 22 c18 12 41 34 53 48 11 14 23 23 27
20 3 -4 -2 -17 -13 -28 l-19 -22 28 18 c15 9 27 21 27 25 0 13 -31 21 -53 14
-16 -5 -14 1 11 27 18 19 32 38 32 43 0 5 8 15 17 22 26 18 11 26 -15 8z"/>
<path d="M1949 3081 c-137 -44 -253 -169 -305 -328 -11 -32 -18 -97 -20 -193
-5 -161 0 -149 -93 -259 -25 -30 -62 -61 -81 -70 -75 -34 -487 -298 -524 -336
-60 -62 -89 -134 -94 -236 -3 -65 0 -100 13 -140 39 -119 116 -208 224 -262
60 -29 74 -32 161 -32 84 0 102 3 159 29 l63 30 71 -75 c321 -335 325 -339
371 -339 33 0 57 9 103 39 61 40 90 72 112 128 23 57 13 73 -88 143 -71 49
-114 88 -173 160 -43 52 -78 100 -78 107 0 7 15 20 33 29 17 9 46 27 62 39 32
24 67 32 189 44 l80 8 100 -53 c138 -72 196 -87 315 -82 87 3 104 7 179 43
162 76 244 209 258 420 24 358 -190 803 -498 1035 -192 145 -387 200 -539 151z
m420 -188 c120 -75 277 -238 358 -373 162 -269 210 -608 113 -800 -91 -181
-310 -218 -523 -90 -75 45 -82 60 -30 61 l38 0 -55 20 c-82 29 -81 36 6 45 86
8 88 7 -53 35 -35 6 -63 15 -63 19 0 4 29 14 65 21 36 7 62 15 59 18 -3 3 -31
8 -62 11 -32 3 -57 10 -57 16 0 6 51 53 112 103 62 51 118 102 125 114 22 41
12 122 -23 185 l-32 57 74 68 c41 38 70 67 64 65 -5 -2 -51 -24 -102 -50 -83
-43 -123 -52 -123 -28 0 5 62 66 138 136 75 70 138 130 140 134 1 4 -5 14 -15
22 -17 15 -26 9 -141 -94 -68 -61 -126 -108 -129 -105 -3 4 21 43 53 87 33 45
76 104 97 133 20 28 37 55 37 60 0 12 -116 127 -128 127 -5 0 -41 -37 -80 -82
-39 -46 -85 -96 -103 -113 l-32 -30 22 40 c12 22 49 77 81 123 61 85 70 106
48 116 -7 3 1 4 17 0 17 -3 63 -26 104 -51z m-581 -44 c-44 -88 -58 -151 -58
-269 0 -124 26 -264 70 -378 37 -96 141 -272 214 -361 146 -178 336 -292 519
-311 49 -5 91 -11 94 -14 3 -2 -20 -7 -51 -11 -162 -21 -369 77 -549 261 -80
81 -147 175 -215 304 -117 220 -155 523 -86 694 23 58 76 146 88 146 3 0 -9
-27 -26 -61z m252 55 c0 -29 -204 -373 -231 -390 -37 -23 99 236 185 353 28
39 46 53 46 37z m-150 -84 c-31 -79 -77 -165 -96 -181 -16 -13 -17 -12 -10 16
9 34 70 169 92 203 26 39 35 14 14 -38z m843 -182 c53 -74 107 -175 142 -260
39 -96 30 -83 -38 52 -70 141 -135 243 -209 328 l-50 57 55 -57 c31 -32 76
-86 100 -120z m-438 -330 c90 -79 109 -218 30 -218 -55 0 -137 107 -139 181
-2 73 49 90 109 37z m-645 4 c0 -10 4 -22 8 -27 5 -6 15 -30 22 -55 23 -76
114 -272 150 -325 19 -27 62 -84 97 -126 35 -42 63 -80 63 -83 0 -3 -10 -6
-21 -6 -19 0 -20 -2 -8 -16 13 -15 11 -16 -16 -12 -17 3 -39 9 -50 13 l-20 8
20 -23 20 -23 -37 7 c-33 6 -37 5 -31 -10 5 -15 2 -16 -25 -11 -26 5 -30 4
-25 -10 5 -14 1 -15 -25 -10 -25 5 -32 3 -32 -9 0 -13 -7 -15 -30 -11 -23 5
-28 3 -23 -8 4 -11 -2 -15 -21 -15 -14 0 -26 -4 -26 -10 0 -5 -11 -10 -25 -10
-14 0 -33 -5 -43 -11 -39 -24 -173 65 -228 152 -62 99 -70 238 -19 342 23 46
43 68 97 108 37 28 98 84 134 125 66 74 94 90 94 56z m493 -61 c7 -57 28 -104
64 -143 l26 -27 -69 -44 c-38 -24 -87 -54 -109 -66 l-40 -22 39 33 c22 18 51
43 65 56 l26 22 -25 -9 c-14 -5 -42 -16 -62 -25 -51 -22 -55 -20 -28 9 27 29
23 31 -27 10 -47 -20 -60 -19 -40 3 25 27 21 34 -15 27 -27 -6 -31 -5 -20 6
19 20 14 29 -15 29 -25 0 -26 0 -8 20 18 19 17 20 -3 20 -25 0 -28 10 -10 28
9 9 8 12 -5 12 -9 0 -17 3 -17 8 0 8 252 111 261 106 3 -2 9 -26 12 -53z m764
27 c-3 -8 -6 -5 -6 6 -1 11 2 17 5 13 3 -3 4 -12 1 -19z m20 -60 c-3 -8 -6 -5
-6 6 -1 11 2 17 5 13 3 -3 4 -12 1 -19z m-1617 -140 c0 -7 -18 -42 -40 -78
-22 -36 -43 -80 -46 -98 -7 -38 -24 -53 -24 -21 0 30 -12 16 -26 -29 l-12 -37
-1 38 c-1 49 -16 40 -25 -15 -7 -43 -7 -43 -21 -18 l-13 25 -6 -25 c-3 -14 -7
-34 -9 -45 -3 -11 -5 -1 -6 23 -1 53 -17 55 -26 2 -8 -46 -25 -63 -25 -25 0
15 -4 24 -10 20 -5 -3 -10 -17 -10 -30 0 -13 -4 -27 -10 -30 -5 -3 -10 2 -10
12 0 15 -2 16 -10 3 -5 -8 -10 -29 -10 -46 0 -37 -9 -48 -26 -33 -8 7 -14 7
-19 -1 -3 -5 -11 -10 -17 -10 -14 0 -3 130 16 173 18 43 27 50 206 161 155 95
180 107 180 84z m410 -770 c94 -121 165 -191 244 -243 42 -28 76 -55 76 -62 0
-19 -113 -93 -142 -93 -22 0 -51 24 -141 118 -229 238 -260 272 -254 279 4 3
16 -2 27 -12 24 -22 36 -14 21 14 -16 29 2 34 35 9 23 -18 27 -19 21 -5 -4 9
-10 24 -13 32 -8 20 11 19 42 -2 25 -16 25 -16 18 10 -10 43 7 31 66 -45z
m293 -153 c74 -49 66 -58 -10 -12 -61 37 -160 134 -182 177 -7 14 20 -9 61
-51 40 -41 99 -93 131 -114z"/>
<path d="M2210 2229 c0 -33 75 -109 108 -109 23 0 22 20 -1 29 -14 6 -40 28
-58 50 -32 41 -49 51 -49 30z"/>
<path d="M1676 1187 c3 -10 9 -15 12 -12 3 3 0 11 -7 18 -10 9 -11 8 -5 -6z"/>
<path d="M1716 1189 c3 -6 0 -15 -7 -20 -11 -7 -6 -16 21 -40 19 -17 53 -49
76 -70 27 -26 47 -37 58 -33 9 3 16 11 16 16 0 14 -145 158 -159 158 -7 0 -9
-5 -5 -11z"/>
<path d="M2782 2915 c-7 -8 -9 -15 -4 -15 5 0 15 7 22 15 16 19 -1 19 -18 0z"/>
<path d="M3148 2782 c-79 -32 -89 -40 -65 -53 9 -6 17 -17 17 -24 0 -19 15
-19 34 1 19 19 19 19 2 37 -13 12 -9 16 27 28 23 7 48 19 55 26 19 18 6 16
-70 -15z"/>
<path d="M3141 2694 c-12 -9 -35 -17 -50 -19 -28 -2 -85 -34 -77 -43 8 -7 166
59 166 69 0 13 -13 11 -39 -7z"/>
<path d="M2978 2623 c7 -3 16 -2 19 1 4 3 -2 6 -13 5 -11 0 -14 -3 -6 -6z"/>
<path d="M3325 2410 c-4 -6 -16 -8 -27 -4 -18 5 -18 4 -8 -16 8 -15 15 -18 24
-11 6 6 31 13 54 17 23 3 39 10 36 15 -7 13 -71 11 -79 -1z"/>
<path d="M3240 2394 c0 -3 6 -12 14 -20 8 -7 16 -19 18 -25 2 -7 10 -10 17 -8
9 3 6 12 -9 32 -20 25 -40 36 -40 21z"/>
<path d="M3275 2325 c-27 -7 -41 -13 -30 -14 34 -2 95 11 95 20 0 11 -1 11
-65 -6z"/>
<path d="M3188 2303 c6 -2 18 -2 25 0 6 3 1 5 -13 5 -14 0 -19 -2 -12 -5z"/>
<path d="M3312 2014 c10 -21 9 -27 -3 -35 -11 -7 -9 -9 10 -9 18 0 22 4 16 18
-5 9 -8 25 -9 35 0 9 -6 17 -13 17 -10 0 -10 -5 -1 -26z"/>
<path d="M3340 2016 c0 -6 7 -21 15 -32 8 -12 11 -24 8 -28 -3 -3 -1 -6 5 -6
7 0 9 11 6 30 l-6 30 52 0 c69 0 61 6 -17 13 -45 4 -63 2 -63 -7z"/>
<path d="M3303 1953 c9 -2 25 -2 35 0 9 3 1 5 -18 5 -19 0 -27 -2 -17 -5z"/>
</g>
</svg>
