<?xml version="1.0" standalone="no"?>
<!DOCTYPE svg PUBLIC "-//W3C//DTD SVG 20010904//EN"
 "http://www.w3.org/TR/2001/REC-SVG-20010904/DTD/svg10.dtd">
<svg version="1.0" xmlns="http://www.w3.org/2000/svg"
 width="64.000000pt" height="64.000000pt" viewBox="0 0 64.000000 64.000000"
 preserveAspectRatio="xMidYMid meet">

<g transform="translate(0.000000,64.000000) scale(0.100000,-0.100000)"
fill="#000000" stroke="none">
<path d="M266 484 c-14 -15 -27 -36 -27 -48 -1 -11 -3 -32 -4 -46 -3 -29 14
-72 26 -64 4 2 13 -6 20 -18 12 -22 11 -22 -6 -8 -17 13 -16 10 3 -23 12 -21
20 -42 18 -46 -3 -4 -23 -13 -45 -21 -37 -12 -43 -11 -61 5 -11 10 -20 29 -20
42 0 28 -7 29 -40 3 -14 -11 -33 -20 -42 -20 -28 0 -22 -38 12 -71 25 -26 35
-29 73 -26 24 2 49 7 56 11 11 7 40 -18 41 -35 0 -3 11 -11 25 -17 40 -18 39
4 -2 42 -32 30 -36 37 -23 46 29 20 61 22 94 6 40 -19 57 -20 89 -5 60 27 63
131 7 218 -61 97 -141 127 -194 75z m165 -50 c29 -33 50 -84 56 -134 5 -43 3
-51 -20 -74 -26 -25 -69 -34 -93 -18 -21 14 -26 63 -8 83 15 17 15 19 0 34
-19 19 -21 39 -3 32 8 -3 12 11 13 50 1 42 -1 53 -12 49 -14 -5 -19 6 -8 17 9
8 55 -16 75 -39z m-131 12 c0 -3 -4 -8 -10 -11 -5 -3 -10 -1 -10 4 0 6 5 11
10 11 6 0 10 -2 10 -4z m44 -113 c9 -22 -7 -36 -33 -28 -23 7 -28 30 -8 38 23
10 35 7 41 -10z"/>
</g>
</svg>
