<?xml version="1.0" encoding="utf-8"?>
<svg width="64pt" height="64pt" viewBox="0 0 64 64" version="1.1" xmlns="http://www.w3.org/2000/svg">
  <g id="surface1" transform="matrix(1, 0, 0, 1, -0.052954, 7.451172)">
    <path style=" stroke:none;fill-rule:nonzero;fill:rgb(83.137255%,68.627451%,21.568627%);fill-opacity:1;" d="M 33.125 5.125 C 33.511719 5.5625 33.949219 6.410156 34.191406 7.398438 C 34.21875 7.496094 34.226562 7.597656 34.246094 7.695312 L 34.226562 7.695312 C 33.082031 9.210938 31.195312 10.101562 29.191406 10.078125 C 28.441406 11.945312 26.480469 13.351562 24.039062 13.773438 C 22.203125 13.90625 20.683594 15.050781 20.261719 16.613281 C 20.15625 16.992188 20.125 17.390625 20.160156 17.785156 C 20.175781 17.582031 20.199219 17.394531 20.246094 17.238281 C 20.734375 15.652344 22.332031 14.527344 24.21875 14.449219 C 26.738281 14.089844 28.792969 12.710938 29.628906 10.820312 C 31.683594 10.90625 33.046875 10.175781 34.269531 8.65625 C 33.75 11.21875 30.375 11.726562 30.375 11.726562 C 30.375 11.726562 29.058594 13.949219 27.109375 14.65625 C 25.566406 15.214844 23.757812 15.558594 22.78125 16.066406 C 21.296875 16.847656 20.816406 17.898438 20.753906 19.378906 C 20.984375 19.71875 21.304688 20.011719 21.65625 20.277344 C 21.722656 20.140625 21.839844 20.035156 21.980469 19.976562 C 23.121094 19.460938 24.171875 18.863281 25.117188 18.203125 C 25.234375 18.117188 25.375 18.074219 25.519531 18.078125 C 26.015625 18.085938 26.316406 18.605469 26.058594 19.011719 C 26.011719 19.085938 25.949219 19.148438 25.878906 19.195312 C 24.957031 19.839844 23.941406 20.410156 22.863281 20.921875 C 24.285156 21.398438 25.917969 21.167969 27.101562 20.269531 L 27.261719 20.117188 C 29.5625 21.0625 32.394531 20.890625 34.445312 19.730469 L 34.515625 19.691406 C 34.871094 19.484375 34.640625 19.609375 34.640625 19.609375 L 34.566406 19.710938 C 33.296875 21.285156 33.210938 22.558594 28.546875 23.679688 C 23.886719 24.800781 22.125 29.621094 23.0625 33.53125 L 24.417969 33.53125 C 23.480469 29.625 25.242188 25.433594 29.902344 24.3125 C 34.566406 23.191406 34.648438 21.285156 35.921875 19.714844 L 35.988281 19.621094 L 37.160156 19.089844 C 35.933594 27.945312 25.515625 21.78125 25.515625 33.527344 L 25.523438 34.117188 L 36.96875 34.117188 L 36.96875 33.5 L 39.761719 33.5 C 39.953125 33.09375 40.128906 32.6875 40.296875 32.273438 L 44.734375 32.203125 C 46.511719 23.507812 43.332031 13.105469 37.574219 8.253906 L 37.417969 8.148438 C 36.546875 6.707031 35.054688 5.574219 33.125 5.128906 Z M 33.875 5.605469 C 36.089844 7.257812 36.632812 9.507812 34.554688 10.582031 L 34.207031 10.667969 C 35.773438 7.734375 34.125 6.128906 33.875 5.605469 Z M 32.242188 13.152344 C 32.257812 13.152344 32.273438 13.152344 32.289062 13.152344 L 33.582031 13.152344 C 34.078125 13.152344 34.390625 13.664062 34.140625 14.074219 C 34.027344 14.265625 33.8125 14.382812 33.582031 14.382812 L 32.289062 14.382812 C 31.792969 14.402344 31.460938 13.898438 31.695312 13.480469 C 31.804688 13.285156 32.011719 13.160156 32.242188 13.152344 Z M 24.199219 35.347656 C 22.777344 35.347656 21.613281 36.457031 21.613281 37.8125 C 21.613281 38.265625 21.753906 38.683594 21.976562 39.046875 L 21.625 39.046875 C 20.164062 39.046875 18.878906 40.03125 18.878906 41.363281 L 18.878906 41.996094 L 18.882812 42.332031 L 18.878906 42.734375 L 18.878906 43.972656 L 20.171875 43.972656 L 20.171875 41.363281 C 20.171875 40.03125 21.457031 39.046875 22.917969 39.046875 L 23.269531 39.046875 C 23.035156 38.671875 22.910156 38.246094 22.90625 37.8125 C 22.90625 36.457031 24.070312 35.347656 25.492188 35.347656 Z M 26.78125 35.347656 C 25.359375 35.347656 24.199219 36.457031 24.199219 37.8125 C 24.199219 38.265625 24.335938 38.683594 24.5625 39.046875 L 24.210938 39.046875 C 22.75 39.046875 21.464844 40.03125 21.464844 41.363281 L 21.464844 43.972656 L 43.429688 43.972656 L 43.429688 41.367188 C 43.429688 40.035156 42.140625 39.050781 40.683594 39.050781 L 40.417969 39.050781 C 40.652344 38.675781 40.777344 38.25 40.78125 37.816406 C 40.78125 36.460938 39.617188 35.351562 38.195312 35.351562 L 26.785156 35.351562 Z M 26.78125 35.347656 "/>
  </g>
</svg>
